<?xml version="1.0" encoding="utf-8" standalone="no"?>
<!DOCTYPE svg PUBLIC "-//W3C//DTD SVG 1.1//EN"
  "http://www.w3.org/Graphics/SVG/1.1/DTD/svg11.dtd">
<svg xmlns:xlink="http://www.w3.org/1999/xlink" width="706.286929pt" height="418.314641pt" viewBox="0 0 706.286929 418.314641" xmlns="http://www.w3.org/2000/svg" version="1.1">
 <metadata>
  <rdf:RDF xmlns:dc="http://purl.org/dc/elements/1.1/" xmlns:cc="http://creativecommons.org/ns#" xmlns:rdf="http://www.w3.org/1999/02/22-rdf-syntax-ns#">
   <cc:Work>
    <dc:type rdf:resource="http://purl.org/dc/dcmitype/StillImage"/>
    <dc:date>2026-07-11T08:59:10.597253</dc:date>
    <dc:format>image/svg+xml</dc:format>
    <dc:creator>
     <cc:Agent>
      <dc:title>Matplotlib v3.9.4, https://matplotlib.org/</dc:title>
     </cc:Agent>
    </dc:creator>
   </cc:Work>
  </rdf:RDF>
 </metadata>
 <defs>
  <style type="text/css">*{stroke-linejoin: round; stroke-linecap: butt}</style>
 </defs>
 <g id="figure_1">
  <g id="patch_1">
   <path d="M 0 418.314641 
L 706.286929 418.314641 
L 706.286929 0 
L 0 0 
z
" style="fill: #ffffff"/>
  </g>
  <g id="axes_1">
   <g id="patch_2">
    <path d="M 51.111563 361.837656 
L 698.845848 361.837656 
L 698.845848 30.597656 
L 51.111563 30.597656 
z
" style="fill: #ffffff"/>
   </g>
   <g id="matplotlib.axis_1">
    <g id="xtick_1">
     <g id="line2d_1">
      <path d="M 51.111562 361.837656 
L 51.111562 30.597656 
" clip-path="url(#pda324280d1)" style="fill: none; stroke: #d6d6d6; stroke-opacity: 0.55; stroke-width: 0.8; stroke-linecap: square"/>
     </g>
     <g id="line2d_2">
      <defs>
       <path id="mabf7fcef1b" d="M 0 0 
L 0 3.5 
" style="stroke: #000000; stroke-width: 0.8"/>
      </defs>
      <g>
       <use xlink:href="#mabf7fcef1b" x="51.111562" y="361.837656" style="stroke: #000000; stroke-width: 0.8"/>
      </g>
     </g>
     <g id="text_1">
      <!-- 1.25 -->
      <g transform="translate(39.97875 376.436094) scale(0.1 -0.1)">
       <defs>
        <path id="DejaVuSans-31" d="M 794 531 
L 1825 531 
L 1825 4091 
L 703 3866 
L 703 4441 
L 1819 4666 
L 2450 4666 
L 2450 531 
L 3481 531 
L 3481 0 
L 794 0 
L 794 531 
z
" transform="scale(0.015625)"/>
        <path id="DejaVuSans-2e" d="M 684 794 
L 1344 794 
L 1344 0 
L 684 0 
L 684 794 
z
" transform="scale(0.015625)"/>
        <path id="DejaVuSans-32" d="M 1228 531 
L 3431 531 
L 3431 0 
L 469 0 
L 469 531 
Q 828 903 1448 1529 
Q 2069 2156 2228 2338 
Q 2531 2678 2651 2914 
Q 2772 3150 2772 3378 
Q 2772 3750 2511 3984 
Q 2250 4219 1831 4219 
Q 1534 4219 1204 4116 
Q 875 4013 500 3803 
L 500 4441 
Q 881 4594 1212 4672 
Q 1544 4750 1819 4750 
Q 2544 4750 2975 4387 
Q 3406 4025 3406 3419 
Q 3406 3131 3298 2873 
Q 3191 2616 2906 2266 
Q 2828 2175 2409 1742 
Q 1991 1309 1228 531 
z
" transform="scale(0.015625)"/>
        <path id="DejaVuSans-35" d="M 691 4666 
L 3169 4666 
L 3169 4134 
L 1269 4134 
L 1269 2991 
Q 1406 3038 1543 3061 
Q 1681 3084 1819 3084 
Q 2600 3084 3056 2656 
Q 3513 2228 3513 1497 
Q 3513 744 3044 326 
Q 2575 -91 1722 -91 
Q 1428 -91 1123 -41 
Q 819 9 494 109 
L 494 744 
Q 775 591 1075 516 
Q 1375 441 1709 441 
Q 2250 441 2565 725 
Q 2881 1009 2881 1497 
Q 2881 1984 2565 2268 
Q 2250 2553 1709 2553 
Q 1456 2553 1204 2497 
Q 953 2441 691 2322 
L 691 4666 
z
" transform="scale(0.015625)"/>
       </defs>
       <use xlink:href="#DejaVuSans-31"/>
       <use xlink:href="#DejaVuSans-2e" x="63.623047"/>
       <use xlink:href="#DejaVuSans-32" x="95.410156"/>
       <use xlink:href="#DejaVuSans-35" x="159.033203"/>
      </g>
     </g>
    </g>
    <g id="xtick_2">
     <g id="line2d_3">
      <path d="M 128.222787 361.837656 
L 128.222787 30.597656 
" clip-path="url(#pda324280d1)" style="fill: none; stroke: #d6d6d6; stroke-opacity: 0.55; stroke-width: 0.8; stroke-linecap: square"/>
     </g>
     <g id="line2d_4">
      <g>
       <use xlink:href="#mabf7fcef1b" x="128.222787" y="361.837656" style="stroke: #000000; stroke-width: 0.8"/>
      </g>
     </g>
     <g id="text_2">
      <!-- 1.50 -->
      <g transform="translate(117.089974 376.436094) scale(0.1 -0.1)">
       <defs>
        <path id="DejaVuSans-30" d="M 2034 4250 
Q 1547 4250 1301 3770 
Q 1056 3291 1056 2328 
Q 1056 1369 1301 889 
Q 1547 409 2034 409 
Q 2525 409 2770 889 
Q 3016 1369 3016 2328 
Q 3016 3291 2770 3770 
Q 2525 4250 2034 4250 
z
M 2034 4750 
Q 2819 4750 3233 4129 
Q 3647 3509 3647 2328 
Q 3647 1150 3233 529 
Q 2819 -91 2034 -91 
Q 1250 -91 836 529 
Q 422 1150 422 2328 
Q 422 3509 836 4129 
Q 1250 4750 2034 4750 
z
" transform="scale(0.015625)"/>
       </defs>
       <use xlink:href="#DejaVuSans-31"/>
       <use xlink:href="#DejaVuSans-2e" x="63.623047"/>
       <use xlink:href="#DejaVuSans-35" x="95.410156"/>
       <use xlink:href="#DejaVuSans-30" x="159.033203"/>
      </g>
     </g>
    </g>
    <g id="xtick_3">
     <g id="line2d_5">
      <path d="M 205.334011 361.837656 
L 205.334011 30.597656 
" clip-path="url(#pda324280d1)" style="fill: none; stroke: #d6d6d6; stroke-opacity: 0.55; stroke-width: 0.8; stroke-linecap: square"/>
     </g>
     <g id="line2d_6">
      <g>
       <use xlink:href="#mabf7fcef1b" x="205.334011" y="361.837656" style="stroke: #000000; stroke-width: 0.8"/>
      </g>
     </g>
     <g id="text_3">
      <!-- 1.75 -->
      <g transform="translate(194.201199 376.436094) scale(0.1 -0.1)">
       <defs>
        <path id="DejaVuSans-37" d="M 525 4666 
L 3525 4666 
L 3525 4397 
L 1831 0 
L 1172 0 
L 2766 4134 
L 525 4134 
L 525 4666 
z
" transform="scale(0.015625)"/>
       </defs>
       <use xlink:href="#DejaVuSans-31"/>
       <use xlink:href="#DejaVuSans-2e" x="63.623047"/>
       <use xlink:href="#DejaVuSans-37" x="95.410156"/>
       <use xlink:href="#DejaVuSans-35" x="159.033203"/>
      </g>
     </g>
    </g>
    <g id="xtick_4">
     <g id="line2d_7">
      <path d="M 282.445236 361.837656 
L 282.445236 30.597656 
" clip-path="url(#pda324280d1)" style="fill: none; stroke: #d6d6d6; stroke-opacity: 0.55; stroke-width: 0.8; stroke-linecap: square"/>
     </g>
     <g id="line2d_8">
      <g>
       <use xlink:href="#mabf7fcef1b" x="282.445236" y="361.837656" style="stroke: #000000; stroke-width: 0.8"/>
      </g>
     </g>
     <g id="text_4">
      <!-- 2.00 -->
      <g transform="translate(271.312423 376.436094) scale(0.1 -0.1)">
       <use xlink:href="#DejaVuSans-32"/>
       <use xlink:href="#DejaVuSans-2e" x="63.623047"/>
       <use xlink:href="#DejaVuSans-30" x="95.410156"/>
       <use xlink:href="#DejaVuSans-30" x="159.033203"/>
      </g>
     </g>
    </g>
    <g id="xtick_5">
     <g id="line2d_9">
      <path d="M 359.55646 361.837656 
L 359.55646 30.597656 
" clip-path="url(#pda324280d1)" style="fill: none; stroke: #d6d6d6; stroke-opacity: 0.55; stroke-width: 0.8; stroke-linecap: square"/>
     </g>
     <g id="line2d_10">
      <g>
       <use xlink:href="#mabf7fcef1b" x="359.55646" y="361.837656" style="stroke: #000000; stroke-width: 0.8"/>
      </g>
     </g>
     <g id="text_5">
      <!-- 2.25 -->
      <g transform="translate(348.423648 376.436094) scale(0.1 -0.1)">
       <use xlink:href="#DejaVuSans-32"/>
       <use xlink:href="#DejaVuSans-2e" x="63.623047"/>
       <use xlink:href="#DejaVuSans-32" x="95.410156"/>
       <use xlink:href="#DejaVuSans-35" x="159.033203"/>
      </g>
     </g>
    </g>
    <g id="xtick_6">
     <g id="line2d_11">
      <path d="M 436.667685 361.837656 
L 436.667685 30.597656 
" clip-path="url(#pda324280d1)" style="fill: none; stroke: #d6d6d6; stroke-opacity: 0.55; stroke-width: 0.8; stroke-linecap: square"/>
     </g>
     <g id="line2d_12">
      <g>
       <use xlink:href="#mabf7fcef1b" x="436.667685" y="361.837656" style="stroke: #000000; stroke-width: 0.8"/>
      </g>
     </g>
     <g id="text_6">
      <!-- 2.50 -->
      <g transform="translate(425.534872 376.436094) scale(0.1 -0.1)">
       <use xlink:href="#DejaVuSans-32"/>
       <use xlink:href="#DejaVuSans-2e" x="63.623047"/>
       <use xlink:href="#DejaVuSans-35" x="95.410156"/>
       <use xlink:href="#DejaVuSans-30" x="159.033203"/>
      </g>
     </g>
    </g>
    <g id="xtick_7">
     <g id="line2d_13">
      <path d="M 513.778909 361.837656 
L 513.778909 30.597656 
" clip-path="url(#pda324280d1)" style="fill: none; stroke: #d6d6d6; stroke-opacity: 0.55; stroke-width: 0.8; stroke-linecap: square"/>
     </g>
     <g id="line2d_14">
      <g>
       <use xlink:href="#mabf7fcef1b" x="513.778909" y="361.837656" style="stroke: #000000; stroke-width: 0.8"/>
      </g>
     </g>
     <g id="text_7">
      <!-- 2.75 -->
      <g transform="translate(502.646097 376.436094) scale(0.1 -0.1)">
       <use xlink:href="#DejaVuSans-32"/>
       <use xlink:href="#DejaVuSans-2e" x="63.623047"/>
       <use xlink:href="#DejaVuSans-37" x="95.410156"/>
       <use xlink:href="#DejaVuSans-35" x="159.033203"/>
      </g>
     </g>
    </g>
    <g id="xtick_8">
     <g id="line2d_15">
      <path d="M 590.890134 361.837656 
L 590.890134 30.597656 
" clip-path="url(#pda324280d1)" style="fill: none; stroke: #d6d6d6; stroke-opacity: 0.55; stroke-width: 0.8; stroke-linecap: square"/>
     </g>
     <g id="line2d_16">
      <g>
       <use xlink:href="#mabf7fcef1b" x="590.890134" y="361.837656" style="stroke: #000000; stroke-width: 0.8"/>
      </g>
     </g>
     <g id="text_8">
      <!-- 3.00 -->
      <g transform="translate(579.757321 376.436094) scale(0.1 -0.1)">
       <defs>
        <path id="DejaVuSans-33" d="M 2597 2516 
Q 3050 2419 3304 2112 
Q 3559 1806 3559 1356 
Q 3559 666 3084 287 
Q 2609 -91 1734 -91 
Q 1441 -91 1130 -33 
Q 819 25 488 141 
L 488 750 
Q 750 597 1062 519 
Q 1375 441 1716 441 
Q 2309 441 2620 675 
Q 2931 909 2931 1356 
Q 2931 1769 2642 2001 
Q 2353 2234 1838 2234 
L 1294 2234 
L 1294 2753 
L 1863 2753 
Q 2328 2753 2575 2939 
Q 2822 3125 2822 3475 
Q 2822 3834 2567 4026 
Q 2313 4219 1838 4219 
Q 1578 4219 1281 4162 
Q 984 4106 628 3988 
L 628 4550 
Q 988 4650 1302 4700 
Q 1616 4750 1894 4750 
Q 2613 4750 3031 4423 
Q 3450 4097 3450 3541 
Q 3450 3153 3228 2886 
Q 3006 2619 2597 2516 
z
" transform="scale(0.015625)"/>
       </defs>
       <use xlink:href="#DejaVuSans-33"/>
       <use xlink:href="#DejaVuSans-2e" x="63.623047"/>
       <use xlink:href="#DejaVuSans-30" x="95.410156"/>
       <use xlink:href="#DejaVuSans-30" x="159.033203"/>
      </g>
     </g>
    </g>
    <g id="xtick_9">
     <g id="line2d_17">
      <path d="M 668.001358 361.837656 
L 668.001358 30.597656 
" clip-path="url(#pda324280d1)" style="fill: none; stroke: #d6d6d6; stroke-opacity: 0.55; stroke-width: 0.8; stroke-linecap: square"/>
     </g>
     <g id="line2d_18">
      <g>
       <use xlink:href="#mabf7fcef1b" x="668.001358" y="361.837656" style="stroke: #000000; stroke-width: 0.8"/>
      </g>
     </g>
     <g id="text_9">
      <!-- 3.25 -->
      <g transform="translate(656.868546 376.436094) scale(0.1 -0.1)">
       <use xlink:href="#DejaVuSans-33"/>
       <use xlink:href="#DejaVuSans-2e" x="63.623047"/>
       <use xlink:href="#DejaVuSans-32" x="95.410156"/>
       <use xlink:href="#DejaVuSans-35" x="159.033203"/>
      </g>
     </g>
    </g>
    <g id="text_10">
     <!-- Checkpoint Size best_model.pth (MB) -->
     <g transform="translate(272.032455 390.874062) scale(0.11 -0.11)">
      <defs>
       <path id="DejaVuSans-43" d="M 4122 4306 
L 4122 3641 
Q 3803 3938 3442 4084 
Q 3081 4231 2675 4231 
Q 1875 4231 1450 3742 
Q 1025 3253 1025 2328 
Q 1025 1406 1450 917 
Q 1875 428 2675 428 
Q 3081 428 3442 575 
Q 3803 722 4122 1019 
L 4122 359 
Q 3791 134 3420 21 
Q 3050 -91 2638 -91 
Q 1578 -91 968 557 
Q 359 1206 359 2328 
Q 359 3453 968 4101 
Q 1578 4750 2638 4750 
Q 3056 4750 3426 4639 
Q 3797 4528 4122 4306 
z
" transform="scale(0.015625)"/>
       <path id="DejaVuSans-68" d="M 3513 2113 
L 3513 0 
L 2938 0 
L 2938 2094 
Q 2938 2591 2744 2837 
Q 2550 3084 2163 3084 
Q 1697 3084 1428 2787 
Q 1159 2491 1159 1978 
L 1159 0 
L 581 0 
L 581 4863 
L 1159 4863 
L 1159 2956 
Q 1366 3272 1645 3428 
Q 1925 3584 2291 3584 
Q 2894 3584 3203 3211 
Q 3513 2838 3513 2113 
z
" transform="scale(0.015625)"/>
       <path id="DejaVuSans-65" d="M 3597 1894 
L 3597 1613 
L 953 1613 
Q 991 1019 1311 708 
Q 1631 397 2203 397 
Q 2534 397 2845 478 
Q 3156 559 3463 722 
L 3463 178 
Q 3153 47 2828 -22 
Q 2503 -91 2169 -91 
Q 1331 -91 842 396 
Q 353 884 353 1716 
Q 353 2575 817 3079 
Q 1281 3584 2069 3584 
Q 2775 3584 3186 3129 
Q 3597 2675 3597 1894 
z
M 3022 2063 
Q 3016 2534 2758 2815 
Q 2500 3097 2075 3097 
Q 1594 3097 1305 2825 
Q 1016 2553 972 2059 
L 3022 2063 
z
" transform="scale(0.015625)"/>
       <path id="DejaVuSans-63" d="M 3122 3366 
L 3122 2828 
Q 2878 2963 2633 3030 
Q 2388 3097 2138 3097 
Q 1578 3097 1268 2742 
Q 959 2388 959 1747 
Q 959 1106 1268 751 
Q 1578 397 2138 397 
Q 2388 397 2633 464 
Q 2878 531 3122 666 
L 3122 134 
Q 2881 22 2623 -34 
Q 2366 -91 2075 -91 
Q 1284 -91 818 406 
Q 353 903 353 1747 
Q 353 2603 823 3093 
Q 1294 3584 2113 3584 
Q 2378 3584 2631 3529 
Q 2884 3475 3122 3366 
z
" transform="scale(0.015625)"/>
       <path id="DejaVuSans-6b" d="M 581 4863 
L 1159 4863 
L 1159 1991 
L 2875 3500 
L 3609 3500 
L 1753 1863 
L 3688 0 
L 2938 0 
L 1159 1709 
L 1159 0 
L 581 0 
L 581 4863 
z
" transform="scale(0.015625)"/>
       <path id="DejaVuSans-70" d="M 1159 525 
L 1159 -1331 
L 581 -1331 
L 581 3500 
L 1159 3500 
L 1159 2969 
Q 1341 3281 1617 3432 
Q 1894 3584 2278 3584 
Q 2916 3584 3314 3078 
Q 3713 2572 3713 1747 
Q 3713 922 3314 415 
Q 2916 -91 2278 -91 
Q 1894 -91 1617 61 
Q 1341 213 1159 525 
z
M 3116 1747 
Q 3116 2381 2855 2742 
Q 2594 3103 2138 3103 
Q 1681 3103 1420 2742 
Q 1159 2381 1159 1747 
Q 1159 1113 1420 752 
Q 1681 391 2138 391 
Q 2594 391 2855 752 
Q 3116 1113 3116 1747 
z
" transform="scale(0.015625)"/>
       <path id="DejaVuSans-6f" d="M 1959 3097 
Q 1497 3097 1228 2736 
Q 959 2375 959 1747 
Q 959 1119 1226 758 
Q 1494 397 1959 397 
Q 2419 397 2687 759 
Q 2956 1122 2956 1747 
Q 2956 2369 2687 2733 
Q 2419 3097 1959 3097 
z
M 1959 3584 
Q 2709 3584 3137 3096 
Q 3566 2609 3566 1747 
Q 3566 888 3137 398 
Q 2709 -91 1959 -91 
Q 1206 -91 779 398 
Q 353 888 353 1747 
Q 353 2609 779 3096 
Q 1206 3584 1959 3584 
z
" transform="scale(0.015625)"/>
       <path id="DejaVuSans-69" d="M 603 3500 
L 1178 3500 
L 1178 0 
L 603 0 
L 603 3500 
z
M 603 4863 
L 1178 4863 
L 1178 4134 
L 603 4134 
L 603 4863 
z
" transform="scale(0.015625)"/>
       <path id="DejaVuSans-6e" d="M 3513 2113 
L 3513 0 
L 2938 0 
L 2938 2094 
Q 2938 2591 2744 2837 
Q 2550 3084 2163 3084 
Q 1697 3084 1428 2787 
Q 1159 2491 1159 1978 
L 1159 0 
L 581 0 
L 581 3500 
L 1159 3500 
L 1159 2956 
Q 1366 3272 1645 3428 
Q 1925 3584 2291 3584 
Q 2894 3584 3203 3211 
Q 3513 2838 3513 2113 
z
" transform="scale(0.015625)"/>
       <path id="DejaVuSans-74" d="M 1172 4494 
L 1172 3500 
L 2356 3500 
L 2356 3053 
L 1172 3053 
L 1172 1153 
Q 1172 725 1289 603 
Q 1406 481 1766 481 
L 2356 481 
L 2356 0 
L 1766 0 
Q 1100 0 847 248 
Q 594 497 594 1153 
L 594 3053 
L 172 3053 
L 172 3500 
L 594 3500 
L 594 4494 
L 1172 4494 
z
" transform="scale(0.015625)"/>
       <path id="DejaVuSans-20" transform="scale(0.015625)"/>
       <path id="DejaVuSans-53" d="M 3425 4513 
L 3425 3897 
Q 3066 4069 2747 4153 
Q 2428 4238 2131 4238 
Q 1616 4238 1336 4038 
Q 1056 3838 1056 3469 
Q 1056 3159 1242 3001 
Q 1428 2844 1947 2747 
L 2328 2669 
Q 3034 2534 3370 2195 
Q 3706 1856 3706 1288 
Q 3706 609 3251 259 
Q 2797 -91 1919 -91 
Q 1588 -91 1214 -16 
Q 841 59 441 206 
L 441 856 
Q 825 641 1194 531 
Q 1563 422 1919 422 
Q 2459 422 2753 634 
Q 3047 847 3047 1241 
Q 3047 1584 2836 1778 
Q 2625 1972 2144 2069 
L 1759 2144 
Q 1053 2284 737 2584 
Q 422 2884 422 3419 
Q 422 4038 858 4394 
Q 1294 4750 2059 4750 
Q 2388 4750 2728 4690 
Q 3069 4631 3425 4513 
z
" transform="scale(0.015625)"/>
       <path id="DejaVuSans-7a" d="M 353 3500 
L 3084 3500 
L 3084 2975 
L 922 459 
L 3084 459 
L 3084 0 
L 275 0 
L 275 525 
L 2438 3041 
L 353 3041 
L 353 3500 
z
" transform="scale(0.015625)"/>
       <path id="DejaVuSans-62" d="M 3116 1747 
Q 3116 2381 2855 2742 
Q 2594 3103 2138 3103 
Q 1681 3103 1420 2742 
Q 1159 2381 1159 1747 
Q 1159 1113 1420 752 
Q 1681 391 2138 391 
Q 2594 391 2855 752 
Q 3116 1113 3116 1747 
z
M 1159 2969 
Q 1341 3281 1617 3432 
Q 1894 3584 2278 3584 
Q 2916 3584 3314 3078 
Q 3713 2572 3713 1747 
Q 3713 922 3314 415 
Q 2916 -91 2278 -91 
Q 1894 -91 1617 61 
Q 1341 213 1159 525 
L 1159 0 
L 581 0 
L 581 4863 
L 1159 4863 
L 1159 2969 
z
" transform="scale(0.015625)"/>
       <path id="DejaVuSans-73" d="M 2834 3397 
L 2834 2853 
Q 2591 2978 2328 3040 
Q 2066 3103 1784 3103 
Q 1356 3103 1142 2972 
Q 928 2841 928 2578 
Q 928 2378 1081 2264 
Q 1234 2150 1697 2047 
L 1894 2003 
Q 2506 1872 2764 1633 
Q 3022 1394 3022 966 
Q 3022 478 2636 193 
Q 2250 -91 1575 -91 
Q 1294 -91 989 -36 
Q 684 19 347 128 
L 347 722 
Q 666 556 975 473 
Q 1284 391 1588 391 
Q 1994 391 2212 530 
Q 2431 669 2431 922 
Q 2431 1156 2273 1281 
Q 2116 1406 1581 1522 
L 1381 1569 
Q 847 1681 609 1914 
Q 372 2147 372 2553 
Q 372 3047 722 3315 
Q 1072 3584 1716 3584 
Q 2034 3584 2315 3537 
Q 2597 3491 2834 3397 
z
" transform="scale(0.015625)"/>
       <path id="DejaVuSans-5f" d="M 3263 -1063 
L 3263 -1509 
L -63 -1509 
L -63 -1063 
L 3263 -1063 
z
" transform="scale(0.015625)"/>
       <path id="DejaVuSans-6d" d="M 3328 2828 
Q 3544 3216 3844 3400 
Q 4144 3584 4550 3584 
Q 5097 3584 5394 3201 
Q 5691 2819 5691 2113 
L 5691 0 
L 5113 0 
L 5113 2094 
Q 5113 2597 4934 2840 
Q 4756 3084 4391 3084 
Q 3944 3084 3684 2787 
Q 3425 2491 3425 1978 
L 3425 0 
L 2847 0 
L 2847 2094 
Q 2847 2600 2669 2842 
Q 2491 3084 2119 3084 
Q 1678 3084 1418 2786 
Q 1159 2488 1159 1978 
L 1159 0 
L 581 0 
L 581 3500 
L 1159 3500 
L 1159 2956 
Q 1356 3278 1631 3431 
Q 1906 3584 2284 3584 
Q 2666 3584 2933 3390 
Q 3200 3197 3328 2828 
z
" transform="scale(0.015625)"/>
       <path id="DejaVuSans-64" d="M 2906 2969 
L 2906 4863 
L 3481 4863 
L 3481 0 
L 2906 0 
L 2906 525 
Q 2725 213 2448 61 
Q 2172 -91 1784 -91 
Q 1150 -91 751 415 
Q 353 922 353 1747 
Q 353 2572 751 3078 
Q 1150 3584 1784 3584 
Q 2172 3584 2448 3432 
Q 2725 3281 2906 2969 
z
M 947 1747 
Q 947 1113 1208 752 
Q 1469 391 1925 391 
Q 2381 391 2643 752 
Q 2906 1113 2906 1747 
Q 2906 2381 2643 2742 
Q 2381 3103 1925 3103 
Q 1469 3103 1208 2742 
Q 947 2381 947 1747 
z
" transform="scale(0.015625)"/>
       <path id="DejaVuSans-6c" d="M 603 4863 
L 1178 4863 
L 1178 0 
L 603 0 
L 603 4863 
z
" transform="scale(0.015625)"/>
       <path id="DejaVuSans-28" d="M 1984 4856 
Q 1566 4138 1362 3434 
Q 1159 2731 1159 2009 
Q 1159 1288 1364 580 
Q 1569 -128 1984 -844 
L 1484 -844 
Q 1016 -109 783 600 
Q 550 1309 550 2009 
Q 550 2706 781 3412 
Q 1013 4119 1484 4856 
L 1984 4856 
z
" transform="scale(0.015625)"/>
       <path id="DejaVuSans-4d" d="M 628 4666 
L 1569 4666 
L 2759 1491 
L 3956 4666 
L 4897 4666 
L 4897 0 
L 4281 0 
L 4281 4097 
L 3078 897 
L 2444 897 
L 1241 4097 
L 1241 0 
L 628 0 
L 628 4666 
z
" transform="scale(0.015625)"/>
       <path id="DejaVuSans-42" d="M 1259 2228 
L 1259 519 
L 2272 519 
Q 2781 519 3026 730 
Q 3272 941 3272 1375 
Q 3272 1813 3026 2020 
Q 2781 2228 2272 2228 
L 1259 2228 
z
M 1259 4147 
L 1259 2741 
L 2194 2741 
Q 2656 2741 2882 2914 
Q 3109 3088 3109 3444 
Q 3109 3797 2882 3972 
Q 2656 4147 2194 4147 
L 1259 4147 
z
M 628 4666 
L 2241 4666 
Q 2963 4666 3353 4366 
Q 3744 4066 3744 3513 
Q 3744 3084 3544 2831 
Q 3344 2578 2956 2516 
Q 3422 2416 3680 2098 
Q 3938 1781 3938 1306 
Q 3938 681 3513 340 
Q 3088 0 2303 0 
L 628 0 
L 628 4666 
z
" transform="scale(0.015625)"/>
       <path id="DejaVuSans-29" d="M 513 4856 
L 1013 4856 
Q 1481 4119 1714 3412 
Q 1947 2706 1947 2009 
Q 1947 1309 1714 600 
Q 1481 -109 1013 -844 
L 513 -844 
Q 928 -128 1133 580 
Q 1338 1288 1338 2009 
Q 1338 2731 1133 3434 
Q 928 4138 513 4856 
z
" transform="scale(0.015625)"/>
      </defs>
      <use xlink:href="#DejaVuSans-43"/>
      <use xlink:href="#DejaVuSans-68" x="69.824219"/>
      <use xlink:href="#DejaVuSans-65" x="133.203125"/>
      <use xlink:href="#DejaVuSans-63" x="194.726562"/>
      <use xlink:href="#DejaVuSans-6b" x="249.707031"/>
      <use xlink:href="#DejaVuSans-70" x="307.617188"/>
      <use xlink:href="#DejaVuSans-6f" x="371.09375"/>
      <use xlink:href="#DejaVuSans-69" x="432.275391"/>
      <use xlink:href="#DejaVuSans-6e" x="460.058594"/>
      <use xlink:href="#DejaVuSans-74" x="523.4375"/>
      <use xlink:href="#DejaVuSans-20" x="562.646484"/>
      <use xlink:href="#DejaVuSans-53" x="594.433594"/>
      <use xlink:href="#DejaVuSans-69" x="657.910156"/>
      <use xlink:href="#DejaVuSans-7a" x="685.693359"/>
      <use xlink:href="#DejaVuSans-65" x="738.183594"/>
      <use xlink:href="#DejaVuSans-20" x="799.707031"/>
      <use xlink:href="#DejaVuSans-62" x="831.494141"/>
      <use xlink:href="#DejaVuSans-65" x="894.970703"/>
      <use xlink:href="#DejaVuSans-73" x="956.494141"/>
      <use xlink:href="#DejaVuSans-74" x="1008.59375"/>
      <use xlink:href="#DejaVuSans-5f" x="1047.802734"/>
      <use xlink:href="#DejaVuSans-6d" x="1097.802734"/>
      <use xlink:href="#DejaVuSans-6f" x="1195.214844"/>
      <use xlink:href="#DejaVuSans-64" x="1256.396484"/>
      <use xlink:href="#DejaVuSans-65" x="1319.873047"/>
      <use xlink:href="#DejaVuSans-6c" x="1381.396484"/>
      <use xlink:href="#DejaVuSans-2e" x="1409.179688"/>
      <use xlink:href="#DejaVuSans-70" x="1440.966797"/>
      <use xlink:href="#DejaVuSans-74" x="1504.443359"/>
      <use xlink:href="#DejaVuSans-68" x="1543.652344"/>
      <use xlink:href="#DejaVuSans-20" x="1607.03125"/>
      <use xlink:href="#DejaVuSans-28" x="1638.818359"/>
      <use xlink:href="#DejaVuSans-4d" x="1677.832031"/>
      <use xlink:href="#DejaVuSans-42" x="1764.111328"/>
      <use xlink:href="#DejaVuSans-29" x="1832.714844"/>
     </g>
    </g>
   </g>
   <g id="matplotlib.axis_2">
    <g id="ytick_1">
     <g id="line2d_19">
      <path d="M 51.111563 361.837656 
L 698.845848 361.837656 
" clip-path="url(#pda324280d1)" style="fill: none; stroke: #d6d6d6; stroke-opacity: 0.55; stroke-width: 0.8; stroke-linecap: square"/>
     </g>
     <g id="line2d_20">
      <defs>
       <path id="m587821eeff" d="M 0 0 
L -3.5 0 
" style="stroke: #000000; stroke-width: 0.8"/>
      </defs>
      <g>
       <use xlink:href="#m587821eeff" x="51.111563" y="361.837656" style="stroke: #000000; stroke-width: 0.8"/>
      </g>
     </g>
     <g id="text_11">
      <!-- 96.0 -->
      <g transform="translate(21.845938 365.636875) scale(0.1 -0.1)">
       <defs>
        <path id="DejaVuSans-39" d="M 703 97 
L 703 672 
Q 941 559 1184 500 
Q 1428 441 1663 441 
Q 2288 441 2617 861 
Q 2947 1281 2994 2138 
Q 2813 1869 2534 1725 
Q 2256 1581 1919 1581 
Q 1219 1581 811 2004 
Q 403 2428 403 3163 
Q 403 3881 828 4315 
Q 1253 4750 1959 4750 
Q 2769 4750 3195 4129 
Q 3622 3509 3622 2328 
Q 3622 1225 3098 567 
Q 2575 -91 1691 -91 
Q 1453 -91 1209 -44 
Q 966 3 703 97 
z
M 1959 2075 
Q 2384 2075 2632 2365 
Q 2881 2656 2881 3163 
Q 2881 3666 2632 3958 
Q 2384 4250 1959 4250 
Q 1534 4250 1286 3958 
Q 1038 3666 1038 3163 
Q 1038 2656 1286 2365 
Q 1534 2075 1959 2075 
z
" transform="scale(0.015625)"/>
        <path id="DejaVuSans-36" d="M 2113 2584 
Q 1688 2584 1439 2293 
Q 1191 2003 1191 1497 
Q 1191 994 1439 701 
Q 1688 409 2113 409 
Q 2538 409 2786 701 
Q 3034 994 3034 1497 
Q 3034 2003 2786 2293 
Q 2538 2584 2113 2584 
z
M 3366 4563 
L 3366 3988 
Q 3128 4100 2886 4159 
Q 2644 4219 2406 4219 
Q 1781 4219 1451 3797 
Q 1122 3375 1075 2522 
Q 1259 2794 1537 2939 
Q 1816 3084 2150 3084 
Q 2853 3084 3261 2657 
Q 3669 2231 3669 1497 
Q 3669 778 3244 343 
Q 2819 -91 2113 -91 
Q 1303 -91 875 529 
Q 447 1150 447 2328 
Q 447 3434 972 4092 
Q 1497 4750 2381 4750 
Q 2619 4750 2861 4703 
Q 3103 4656 3366 4563 
z
" transform="scale(0.015625)"/>
       </defs>
       <use xlink:href="#DejaVuSans-39"/>
       <use xlink:href="#DejaVuSans-36" x="63.623047"/>
       <use xlink:href="#DejaVuSans-2e" x="127.246094"/>
       <use xlink:href="#DejaVuSans-30" x="159.033203"/>
      </g>
     </g>
    </g>
    <g id="ytick_2">
     <g id="line2d_21">
      <path d="M 51.111563 315.832101 
L 698.845848 315.832101 
" clip-path="url(#pda324280d1)" style="fill: none; stroke: #d6d6d6; stroke-opacity: 0.55; stroke-width: 0.8; stroke-linecap: square"/>
     </g>
     <g id="line2d_22">
      <g>
       <use xlink:href="#m587821eeff" x="51.111563" y="315.832101" style="stroke: #000000; stroke-width: 0.8"/>
      </g>
     </g>
     <g id="text_12">
      <!-- 96.5 -->
      <g transform="translate(21.845938 319.631319) scale(0.1 -0.1)">
       <use xlink:href="#DejaVuSans-39"/>
       <use xlink:href="#DejaVuSans-36" x="63.623047"/>
       <use xlink:href="#DejaVuSans-2e" x="127.246094"/>
       <use xlink:href="#DejaVuSans-35" x="159.033203"/>
      </g>
     </g>
    </g>
    <g id="ytick_3">
     <g id="line2d_23">
      <path d="M 51.111563 269.826545 
L 698.845848 269.826545 
" clip-path="url(#pda324280d1)" style="fill: none; stroke: #d6d6d6; stroke-opacity: 0.55; stroke-width: 0.8; stroke-linecap: square"/>
     </g>
     <g id="line2d_24">
      <g>
       <use xlink:href="#m587821eeff" x="51.111563" y="269.826545" style="stroke: #000000; stroke-width: 0.8"/>
      </g>
     </g>
     <g id="text_13">
      <!-- 97.0 -->
      <g transform="translate(21.845938 273.625764) scale(0.1 -0.1)">
       <use xlink:href="#DejaVuSans-39"/>
       <use xlink:href="#DejaVuSans-37" x="63.623047"/>
       <use xlink:href="#DejaVuSans-2e" x="127.246094"/>
       <use xlink:href="#DejaVuSans-30" x="159.033203"/>
      </g>
     </g>
    </g>
    <g id="ytick_4">
     <g id="line2d_25">
      <path d="M 51.111563 223.82099 
L 698.845848 223.82099 
" clip-path="url(#pda324280d1)" style="fill: none; stroke: #d6d6d6; stroke-opacity: 0.55; stroke-width: 0.8; stroke-linecap: square"/>
     </g>
     <g id="line2d_26">
      <g>
       <use xlink:href="#m587821eeff" x="51.111563" y="223.82099" style="stroke: #000000; stroke-width: 0.8"/>
      </g>
     </g>
     <g id="text_14">
      <!-- 97.5 -->
      <g transform="translate(21.845938 227.620208) scale(0.1 -0.1)">
       <use xlink:href="#DejaVuSans-39"/>
       <use xlink:href="#DejaVuSans-37" x="63.623047"/>
       <use xlink:href="#DejaVuSans-2e" x="127.246094"/>
       <use xlink:href="#DejaVuSans-35" x="159.033203"/>
      </g>
     </g>
    </g>
    <g id="ytick_5">
     <g id="line2d_27">
      <path d="M 51.111563 177.815434 
L 698.845848 177.815434 
" clip-path="url(#pda324280d1)" style="fill: none; stroke: #d6d6d6; stroke-opacity: 0.55; stroke-width: 0.8; stroke-linecap: square"/>
     </g>
     <g id="line2d_28">
      <g>
       <use xlink:href="#m587821eeff" x="51.111563" y="177.815434" style="stroke: #000000; stroke-width: 0.8"/>
      </g>
     </g>
     <g id="text_15">
      <!-- 98.0 -->
      <g transform="translate(21.845938 181.614653) scale(0.1 -0.1)">
       <defs>
        <path id="DejaVuSans-38" d="M 2034 2216 
Q 1584 2216 1326 1975 
Q 1069 1734 1069 1313 
Q 1069 891 1326 650 
Q 1584 409 2034 409 
Q 2484 409 2743 651 
Q 3003 894 3003 1313 
Q 3003 1734 2745 1975 
Q 2488 2216 2034 2216 
z
M 1403 2484 
Q 997 2584 770 2862 
Q 544 3141 544 3541 
Q 544 4100 942 4425 
Q 1341 4750 2034 4750 
Q 2731 4750 3128 4425 
Q 3525 4100 3525 3541 
Q 3525 3141 3298 2862 
Q 3072 2584 2669 2484 
Q 3125 2378 3379 2068 
Q 3634 1759 3634 1313 
Q 3634 634 3220 271 
Q 2806 -91 2034 -91 
Q 1263 -91 848 271 
Q 434 634 434 1313 
Q 434 1759 690 2068 
Q 947 2378 1403 2484 
z
M 1172 3481 
Q 1172 3119 1398 2916 
Q 1625 2713 2034 2713 
Q 2441 2713 2670 2916 
Q 2900 3119 2900 3481 
Q 2900 3844 2670 4047 
Q 2441 4250 2034 4250 
Q 1625 4250 1398 4047 
Q 1172 3844 1172 3481 
z
" transform="scale(0.015625)"/>
       </defs>
       <use xlink:href="#DejaVuSans-39"/>
       <use xlink:href="#DejaVuSans-38" x="63.623047"/>
       <use xlink:href="#DejaVuSans-2e" x="127.246094"/>
       <use xlink:href="#DejaVuSans-30" x="159.033203"/>
      </g>
     </g>
    </g>
    <g id="ytick_6">
     <g id="line2d_29">
      <path d="M 51.111563 131.809878 
L 698.845848 131.809878 
" clip-path="url(#pda324280d1)" style="fill: none; stroke: #d6d6d6; stroke-opacity: 0.55; stroke-width: 0.8; stroke-linecap: square"/>
     </g>
     <g id="line2d_30">
      <g>
       <use xlink:href="#m587821eeff" x="51.111563" y="131.809878" style="stroke: #000000; stroke-width: 0.8"/>
      </g>
     </g>
     <g id="text_16">
      <!-- 98.5 -->
      <g transform="translate(21.845938 135.609097) scale(0.1 -0.1)">
       <use xlink:href="#DejaVuSans-39"/>
       <use xlink:href="#DejaVuSans-38" x="63.623047"/>
       <use xlink:href="#DejaVuSans-2e" x="127.246094"/>
       <use xlink:href="#DejaVuSans-35" x="159.033203"/>
      </g>
     </g>
    </g>
    <g id="ytick_7">
     <g id="line2d_31">
      <path d="M 51.111563 85.804323 
L 698.845848 85.804323 
" clip-path="url(#pda324280d1)" style="fill: none; stroke: #d6d6d6; stroke-opacity: 0.55; stroke-width: 0.8; stroke-linecap: square"/>
     </g>
     <g id="line2d_32">
      <g>
       <use xlink:href="#m587821eeff" x="51.111563" y="85.804323" style="stroke: #000000; stroke-width: 0.8"/>
      </g>
     </g>
     <g id="text_17">
      <!-- 99.0 -->
      <g transform="translate(21.845938 89.603542) scale(0.1 -0.1)">
       <use xlink:href="#DejaVuSans-39"/>
       <use xlink:href="#DejaVuSans-39" x="63.623047"/>
       <use xlink:href="#DejaVuSans-2e" x="127.246094"/>
       <use xlink:href="#DejaVuSans-30" x="159.033203"/>
      </g>
     </g>
    </g>
    <g id="ytick_8">
     <g id="line2d_33">
      <path d="M 51.111563 39.798767 
L 698.845848 39.798767 
" clip-path="url(#pda324280d1)" style="fill: none; stroke: #d6d6d6; stroke-opacity: 0.55; stroke-width: 0.8; stroke-linecap: square"/>
     </g>
     <g id="line2d_34">
      <g>
       <use xlink:href="#m587821eeff" x="51.111563" y="39.798767" style="stroke: #000000; stroke-width: 0.8"/>
      </g>
     </g>
     <g id="text_18">
      <!-- 99.5 -->
      <g transform="translate(21.845938 43.597986) scale(0.1 -0.1)">
       <use xlink:href="#DejaVuSans-39"/>
       <use xlink:href="#DejaVuSans-39" x="63.623047"/>
       <use xlink:href="#DejaVuSans-2e" x="127.246094"/>
       <use xlink:href="#DejaVuSans-35" x="159.033203"/>
      </g>
     </g>
    </g>
    <g id="text_19">
     <!-- Test Accuracy Retraining (%) -->
     <g transform="translate(15.558281 275.184766) rotate(-90) scale(0.11 -0.11)">
      <defs>
       <path id="DejaVuSans-54" d="M -19 4666 
L 3928 4666 
L 3928 4134 
L 2272 4134 
L 2272 0 
L 1638 0 
L 1638 4134 
L -19 4134 
L -19 4666 
z
" transform="scale(0.015625)"/>
       <path id="DejaVuSans-41" d="M 2188 4044 
L 1331 1722 
L 3047 1722 
L 2188 4044 
z
M 1831 4666 
L 2547 4666 
L 4325 0 
L 3669 0 
L 3244 1197 
L 1141 1197 
L 716 0 
L 50 0 
L 1831 4666 
z
" transform="scale(0.015625)"/>
       <path id="DejaVuSans-75" d="M 544 1381 
L 544 3500 
L 1119 3500 
L 1119 1403 
Q 1119 906 1312 657 
Q 1506 409 1894 409 
Q 2359 409 2629 706 
Q 2900 1003 2900 1516 
L 2900 3500 
L 3475 3500 
L 3475 0 
L 2900 0 
L 2900 538 
Q 2691 219 2414 64 
Q 2138 -91 1772 -91 
Q 1169 -91 856 284 
Q 544 659 544 1381 
z
M 1991 3584 
L 1991 3584 
z
" transform="scale(0.015625)"/>
       <path id="DejaVuSans-72" d="M 2631 2963 
Q 2534 3019 2420 3045 
Q 2306 3072 2169 3072 
Q 1681 3072 1420 2755 
Q 1159 2438 1159 1844 
L 1159 0 
L 581 0 
L 581 3500 
L 1159 3500 
L 1159 2956 
Q 1341 3275 1631 3429 
Q 1922 3584 2338 3584 
Q 2397 3584 2469 3576 
Q 2541 3569 2628 3553 
L 2631 2963 
z
" transform="scale(0.015625)"/>
       <path id="DejaVuSans-61" d="M 2194 1759 
Q 1497 1759 1228 1600 
Q 959 1441 959 1056 
Q 959 750 1161 570 
Q 1363 391 1709 391 
Q 2188 391 2477 730 
Q 2766 1069 2766 1631 
L 2766 1759 
L 2194 1759 
z
M 3341 1997 
L 3341 0 
L 2766 0 
L 2766 531 
Q 2569 213 2275 61 
Q 1981 -91 1556 -91 
Q 1019 -91 701 211 
Q 384 513 384 1019 
Q 384 1609 779 1909 
Q 1175 2209 1959 2209 
L 2766 2209 
L 2766 2266 
Q 2766 2663 2505 2880 
Q 2244 3097 1772 3097 
Q 1472 3097 1187 3025 
Q 903 2953 641 2809 
L 641 3341 
Q 956 3463 1253 3523 
Q 1550 3584 1831 3584 
Q 2591 3584 2966 3190 
Q 3341 2797 3341 1997 
z
" transform="scale(0.015625)"/>
       <path id="DejaVuSans-79" d="M 2059 -325 
Q 1816 -950 1584 -1140 
Q 1353 -1331 966 -1331 
L 506 -1331 
L 506 -850 
L 844 -850 
Q 1081 -850 1212 -737 
Q 1344 -625 1503 -206 
L 1606 56 
L 191 3500 
L 800 3500 
L 1894 763 
L 2988 3500 
L 3597 3500 
L 2059 -325 
z
" transform="scale(0.015625)"/>
       <path id="DejaVuSans-52" d="M 2841 2188 
Q 3044 2119 3236 1894 
Q 3428 1669 3622 1275 
L 4263 0 
L 3584 0 
L 2988 1197 
Q 2756 1666 2539 1819 
Q 2322 1972 1947 1972 
L 1259 1972 
L 1259 0 
L 628 0 
L 628 4666 
L 2053 4666 
Q 2853 4666 3247 4331 
Q 3641 3997 3641 3322 
Q 3641 2881 3436 2590 
Q 3231 2300 2841 2188 
z
M 1259 4147 
L 1259 2491 
L 2053 2491 
Q 2509 2491 2742 2702 
Q 2975 2913 2975 3322 
Q 2975 3731 2742 3939 
Q 2509 4147 2053 4147 
L 1259 4147 
z
" transform="scale(0.015625)"/>
       <path id="DejaVuSans-67" d="M 2906 1791 
Q 2906 2416 2648 2759 
Q 2391 3103 1925 3103 
Q 1463 3103 1205 2759 
Q 947 2416 947 1791 
Q 947 1169 1205 825 
Q 1463 481 1925 481 
Q 2391 481 2648 825 
Q 2906 1169 2906 1791 
z
M 3481 434 
Q 3481 -459 3084 -895 
Q 2688 -1331 1869 -1331 
Q 1566 -1331 1297 -1286 
Q 1028 -1241 775 -1147 
L 775 -588 
Q 1028 -725 1275 -790 
Q 1522 -856 1778 -856 
Q 2344 -856 2625 -561 
Q 2906 -266 2906 331 
L 2906 616 
Q 2728 306 2450 153 
Q 2172 0 1784 0 
Q 1141 0 747 490 
Q 353 981 353 1791 
Q 353 2603 747 3093 
Q 1141 3584 1784 3584 
Q 2172 3584 2450 3431 
Q 2728 3278 2906 2969 
L 2906 3500 
L 3481 3500 
L 3481 434 
z
" transform="scale(0.015625)"/>
       <path id="DejaVuSans-25" d="M 4653 2053 
Q 4381 2053 4226 1822 
Q 4072 1591 4072 1178 
Q 4072 772 4226 539 
Q 4381 306 4653 306 
Q 4919 306 5073 539 
Q 5228 772 5228 1178 
Q 5228 1588 5073 1820 
Q 4919 2053 4653 2053 
z
M 4653 2450 
Q 5147 2450 5437 2106 
Q 5728 1763 5728 1178 
Q 5728 594 5436 251 
Q 5144 -91 4653 -91 
Q 4153 -91 3862 251 
Q 3572 594 3572 1178 
Q 3572 1766 3864 2108 
Q 4156 2450 4653 2450 
z
M 1428 4353 
Q 1159 4353 1004 4120 
Q 850 3888 850 3481 
Q 850 3069 1003 2837 
Q 1156 2606 1428 2606 
Q 1700 2606 1854 2837 
Q 2009 3069 2009 3481 
Q 2009 3884 1853 4118 
Q 1697 4353 1428 4353 
z
M 4250 4750 
L 4750 4750 
L 1831 -91 
L 1331 -91 
L 4250 4750 
z
M 1428 4750 
Q 1922 4750 2215 4408 
Q 2509 4066 2509 3481 
Q 2509 2891 2217 2550 
Q 1925 2209 1428 2209 
Q 931 2209 642 2551 
Q 353 2894 353 3481 
Q 353 4063 643 4406 
Q 934 4750 1428 4750 
z
" transform="scale(0.015625)"/>
      </defs>
      <use xlink:href="#DejaVuSans-54"/>
      <use xlink:href="#DejaVuSans-65" x="44.083984"/>
      <use xlink:href="#DejaVuSans-73" x="105.607422"/>
      <use xlink:href="#DejaVuSans-74" x="157.707031"/>
      <use xlink:href="#DejaVuSans-20" x="196.916016"/>
      <use xlink:href="#DejaVuSans-41" x="228.703125"/>
      <use xlink:href="#DejaVuSans-63" x="295.361328"/>
      <use xlink:href="#DejaVuSans-63" x="350.341797"/>
      <use xlink:href="#DejaVuSans-75" x="405.322266"/>
      <use xlink:href="#DejaVuSans-72" x="468.701172"/>
      <use xlink:href="#DejaVuSans-61" x="509.814453"/>
      <use xlink:href="#DejaVuSans-63" x="571.09375"/>
      <use xlink:href="#DejaVuSans-79" x="626.074219"/>
      <use xlink:href="#DejaVuSans-20" x="685.253906"/>
      <use xlink:href="#DejaVuSans-52" x="717.041016"/>
      <use xlink:href="#DejaVuSans-65" x="782.023438"/>
      <use xlink:href="#DejaVuSans-74" x="843.546875"/>
      <use xlink:href="#DejaVuSans-72" x="882.755859"/>
      <use xlink:href="#DejaVuSans-61" x="923.869141"/>
      <use xlink:href="#DejaVuSans-69" x="985.148438"/>
      <use xlink:href="#DejaVuSans-6e" x="1012.931641"/>
      <use xlink:href="#DejaVuSans-69" x="1076.310547"/>
      <use xlink:href="#DejaVuSans-6e" x="1104.09375"/>
      <use xlink:href="#DejaVuSans-67" x="1167.472656"/>
      <use xlink:href="#DejaVuSans-20" x="1230.949219"/>
      <use xlink:href="#DejaVuSans-28" x="1262.736328"/>
      <use xlink:href="#DejaVuSans-25" x="1301.75"/>
      <use xlink:href="#DejaVuSans-29" x="1396.769531"/>
     </g>
    </g>
   </g>
   <g id="patch_3">
    <path d="M 51.111563 361.837656 
L 51.111563 30.597656 
" style="fill: none; stroke: #000000; stroke-width: 0.8; stroke-linejoin: miter; stroke-linecap: square"/>
   </g>
   <g id="patch_4">
    <path d="M 51.111562 361.837656 
L 698.845848 361.837656 
" style="fill: none; stroke: #000000; stroke-width: 0.8; stroke-linejoin: miter; stroke-linecap: square"/>
   </g>
   <g id="PathCollection_1">
    <defs>
     <path id="m30fccaf574" d="M 0 4.690416 
C 1.243913 4.690416 2.437046 4.196204 3.316625 3.316625 
C 4.196204 2.437046 4.690416 1.243913 4.690416 0 
C 4.690416 -1.243913 4.196204 -2.437046 3.316625 -3.316625 
C 2.437046 -4.196204 1.243913 -4.690416 0 -4.690416 
C -1.243913 -4.690416 -2.437046 -4.196204 -3.316625 -3.316625 
C -4.196204 -2.437046 -4.690416 -1.243913 -4.690416 0 
C -4.690416 1.243913 -4.196204 2.437046 -3.316625 3.316625 
C -2.437046 4.196204 -1.243913 4.690416 0 4.690416 
z
" style="stroke: #ffffff; stroke-width: 0.9"/>
    </defs>
    <g clip-path="url(#pda324280d1)">
     <use xlink:href="#m30fccaf574" x="118.35255" y="258.785212" style="fill: #7f7f7f; stroke: #ffffff; stroke-width: 0.9"/>
     <use xlink:href="#m30fccaf574" x="247.590962" y="170.454545" style="fill: #7f7f7f; stroke: #ffffff; stroke-width: 0.9"/>
     <use xlink:href="#m30fccaf574" x="390.092505" y="170.454545" style="fill: #7f7f7f; stroke: #ffffff; stroke-width: 0.9"/>
    </g>
   </g>
   <g id="PathCollection_2">
    <defs>
     <path id="m582476f320" d="M 0 4.690416 
C 1.243913 4.690416 2.437046 4.196204 3.316625 3.316625 
C 4.196204 2.437046 4.690416 1.243913 4.690416 0 
C 4.690416 -1.243913 4.196204 -2.437046 3.316625 -3.316625 
C 2.437046 -4.196204 1.243913 -4.690416 0 -4.690416 
C -1.243913 -4.690416 -2.437046 -4.196204 -3.316625 -3.316625 
C -4.196204 -2.437046 -4.690416 -1.243913 -4.690416 0 
C -4.690416 1.243913 -4.196204 2.437046 -3.316625 3.316625 
C -2.437046 4.196204 -1.243913 4.690416 0 4.690416 
z
" style="stroke: #ffffff; stroke-width: 0.9"/>
    </defs>
    <g clip-path="url(#pda324280d1)">
     <use xlink:href="#m582476f320" x="111.258318" y="313.991878" style="fill: #2f6fb0; stroke: #ffffff; stroke-width: 0.9"/>
     <use xlink:href="#m582476f320" x="254.685195" y="170.454545" style="fill: #2f6fb0; stroke: #ffffff; stroke-width: 0.9"/>
     <use xlink:href="#m582476f320" x="419.086326" y="82.123878" style="fill: #2f6fb0; stroke: #ffffff; stroke-width: 0.9"/>
    </g>
   </g>
   <g id="PathCollection_3">
    <defs>
     <path id="m29706bb12a" d="M -0 6.63325 
L 6.63325 0 
L 0 -6.63325 
L -6.63325 -0 
z
" style="stroke: #ffffff; stroke-width: 0.9"/>
    </defs>
    <g clip-path="url(#pda324280d1)">
     <use xlink:href="#m29706bb12a" x="202.558007" y="347.115878" style="fill: #d6862d; stroke: #ffffff; stroke-width: 0.9"/>
     <use xlink:href="#m29706bb12a" x="405.206305" y="159.413212" style="fill: #d6862d; stroke: #ffffff; stroke-width: 0.9"/>
     <use xlink:href="#m29706bb12a" x="643.634211" y="115.247878" style="fill: #d6862d; stroke: #ffffff; stroke-width: 0.9"/>
    </g>
   </g>
   <g id="PathCollection_4">
    <defs>
     <path id="m5ae487e869" d="M -4.690416 4.690416 
L 4.690416 4.690416 
L 4.690416 -4.690416 
L -4.690416 -4.690416 
z
" style="stroke: #ffffff; stroke-width: 0.9"/>
    </defs>
    <g clip-path="url(#pda324280d1)">
     <use xlink:href="#m5ae487e869" x="185.593538" y="203.578545" style="fill: #3f9464; stroke: #ffffff; stroke-width: 0.9"/>
     <use xlink:href="#m5ae487e869" x="376.829375" y="137.330545" style="fill: #3f9464; stroke: #ffffff; stroke-width: 0.9"/>
     <use xlink:href="#m5ae487e869" x="600.760371" y="104.206545" style="fill: #3f9464; stroke: #ffffff; stroke-width: 0.9"/>
    </g>
   </g>
   <g id="text_20">
    <!-- L0.00 C6 -->
    <g style="fill: #202020" transform="translate(69.001367 251.424323) scale(0.085 -0.085)">
     <defs>
      <path id="DejaVuSans-4c" d="M 628 4666 
L 1259 4666 
L 1259 531 
L 3531 531 
L 3531 0 
L 628 0 
L 628 4666 
z
" transform="scale(0.015625)"/>
     </defs>
     <use xlink:href="#DejaVuSans-4c"/>
     <use xlink:href="#DejaVuSans-30" x="55.712891"/>
     <use xlink:href="#DejaVuSans-2e" x="119.335938"/>
     <use xlink:href="#DejaVuSans-30" x="151.123047"/>
     <use xlink:href="#DejaVuSans-30" x="214.746094"/>
     <use xlink:href="#DejaVuSans-20" x="278.369141"/>
     <use xlink:href="#DejaVuSans-43" x="310.15625"/>
     <use xlink:href="#DejaVuSans-36" x="379.980469"/>
    </g>
   </g>
   <g id="text_21">
    <!-- L0.00 C8 -->
    <g style="fill: #202020" transform="translate(222.915371 159.413212) scale(0.085 -0.085)">
     <use xlink:href="#DejaVuSans-4c"/>
     <use xlink:href="#DejaVuSans-30" x="55.712891"/>
     <use xlink:href="#DejaVuSans-2e" x="119.335938"/>
     <use xlink:href="#DejaVuSans-30" x="151.123047"/>
     <use xlink:href="#DejaVuSans-30" x="214.746094"/>
     <use xlink:href="#DejaVuSans-20" x="278.369141"/>
     <use xlink:href="#DejaVuSans-43" x="310.15625"/>
     <use xlink:href="#DejaVuSans-38" x="379.980469"/>
    </g>
   </g>
   <g id="text_22">
    <!-- L0.00 C10 -->
    <g style="fill: #202020" transform="translate(365.416914 187.016545) scale(0.085 -0.085)">
     <use xlink:href="#DejaVuSans-4c"/>
     <use xlink:href="#DejaVuSans-30" x="55.712891"/>
     <use xlink:href="#DejaVuSans-2e" x="119.335938"/>
     <use xlink:href="#DejaVuSans-30" x="151.123047"/>
     <use xlink:href="#DejaVuSans-30" x="214.746094"/>
     <use xlink:href="#DejaVuSans-20" x="278.369141"/>
     <use xlink:href="#DejaVuSans-43" x="310.15625"/>
     <use xlink:href="#DejaVuSans-31" x="379.980469"/>
     <use xlink:href="#DejaVuSans-30" x="443.603516"/>
    </g>
   </g>
   <g id="text_23">
    <!-- L0.05 C6 -->
    <g style="fill: #202020" transform="translate(68.076032 330.553878) scale(0.085 -0.085)">
     <use xlink:href="#DejaVuSans-4c"/>
     <use xlink:href="#DejaVuSans-30" x="55.712891"/>
     <use xlink:href="#DejaVuSans-2e" x="119.335938"/>
     <use xlink:href="#DejaVuSans-30" x="151.123047"/>
     <use xlink:href="#DejaVuSans-35" x="214.746094"/>
     <use xlink:href="#DejaVuSans-20" x="278.369141"/>
     <use xlink:href="#DejaVuSans-43" x="310.15625"/>
     <use xlink:href="#DejaVuSans-36" x="379.980469"/>
    </g>
   </g>
   <g id="text_24">
    <!-- L0.05 C8 -->
    <g style="fill: #202020" transform="translate(263.938542 161.253434) scale(0.085 -0.085)">
     <use xlink:href="#DejaVuSans-4c"/>
     <use xlink:href="#DejaVuSans-30" x="55.712891"/>
     <use xlink:href="#DejaVuSans-2e" x="119.335938"/>
     <use xlink:href="#DejaVuSans-30" x="151.123047"/>
     <use xlink:href="#DejaVuSans-35" x="214.746094"/>
     <use xlink:href="#DejaVuSans-20" x="278.369141"/>
     <use xlink:href="#DejaVuSans-43" x="310.15625"/>
     <use xlink:href="#DejaVuSans-38" x="379.980469"/>
    </g>
   </g>
   <g id="text_25">
    <!-- L0.05 C10 -->
    <g style="fill: #202020" transform="translate(431.424122 72.922767) scale(0.085 -0.085)">
     <use xlink:href="#DejaVuSans-4c"/>
     <use xlink:href="#DejaVuSans-30" x="55.712891"/>
     <use xlink:href="#DejaVuSans-2e" x="119.335938"/>
     <use xlink:href="#DejaVuSans-30" x="151.123047"/>
     <use xlink:href="#DejaVuSans-35" x="214.746094"/>
     <use xlink:href="#DejaVuSans-20" x="278.369141"/>
     <use xlink:href="#DejaVuSans-43" x="310.15625"/>
     <use xlink:href="#DejaVuSans-31" x="379.980469"/>
     <use xlink:href="#DejaVuSans-30" x="443.603516"/>
    </g>
   </g>
   <g id="text_26">
    <!-- L0.10 C6 -->
    <g style="fill: #202020" transform="translate(214.895803 359.997434) scale(0.085 -0.085)">
     <use xlink:href="#DejaVuSans-4c"/>
     <use xlink:href="#DejaVuSans-30" x="55.712891"/>
     <use xlink:href="#DejaVuSans-2e" x="119.335938"/>
     <use xlink:href="#DejaVuSans-31" x="151.123047"/>
     <use xlink:href="#DejaVuSans-30" x="214.746094"/>
     <use xlink:href="#DejaVuSans-20" x="278.369141"/>
     <use xlink:href="#DejaVuSans-43" x="310.15625"/>
     <use xlink:href="#DejaVuSans-36" x="379.980469"/>
    </g>
   </g>
   <g id="text_27">
    <!-- L0.10 C8 -->
    <g style="fill: #202020" transform="translate(417.544101 152.052323) scale(0.085 -0.085)">
     <use xlink:href="#DejaVuSans-4c"/>
     <use xlink:href="#DejaVuSans-30" x="55.712891"/>
     <use xlink:href="#DejaVuSans-2e" x="119.335938"/>
     <use xlink:href="#DejaVuSans-31" x="151.123047"/>
     <use xlink:href="#DejaVuSans-30" x="214.746094"/>
     <use xlink:href="#DejaVuSans-20" x="278.369141"/>
     <use xlink:href="#DejaVuSans-43" x="310.15625"/>
     <use xlink:href="#DejaVuSans-38" x="379.980469"/>
    </g>
   </g>
   <g id="text_28">
    <!-- L0.10 C10 -->
    <g style="fill: #202020" transform="translate(655.972007 107.88699) scale(0.085 -0.085)">
     <use xlink:href="#DejaVuSans-4c"/>
     <use xlink:href="#DejaVuSans-30" x="55.712891"/>
     <use xlink:href="#DejaVuSans-2e" x="119.335938"/>
     <use xlink:href="#DejaVuSans-31" x="151.123047"/>
     <use xlink:href="#DejaVuSans-30" x="214.746094"/>
     <use xlink:href="#DejaVuSans-20" x="278.369141"/>
     <use xlink:href="#DejaVuSans-43" x="310.15625"/>
     <use xlink:href="#DejaVuSans-31" x="379.980469"/>
     <use xlink:href="#DejaVuSans-30" x="443.603516"/>
    </g>
   </g>
   <g id="text_29">
    <!-- L0.20 C6 -->
    <g style="fill: #202020" transform="translate(197.931334 196.217656) scale(0.085 -0.085)">
     <use xlink:href="#DejaVuSans-4c"/>
     <use xlink:href="#DejaVuSans-30" x="55.712891"/>
     <use xlink:href="#DejaVuSans-2e" x="119.335938"/>
     <use xlink:href="#DejaVuSans-32" x="151.123047"/>
     <use xlink:href="#DejaVuSans-30" x="214.746094"/>
     <use xlink:href="#DejaVuSans-20" x="278.369141"/>
     <use xlink:href="#DejaVuSans-43" x="310.15625"/>
     <use xlink:href="#DejaVuSans-36" x="379.980469"/>
    </g>
   </g>
   <g id="text_30">
    <!-- L0.20 C8 -->
    <g style="fill: #202020" transform="translate(389.167171 129.969656) scale(0.085 -0.085)">
     <use xlink:href="#DejaVuSans-4c"/>
     <use xlink:href="#DejaVuSans-30" x="55.712891"/>
     <use xlink:href="#DejaVuSans-2e" x="119.335938"/>
     <use xlink:href="#DejaVuSans-32" x="151.123047"/>
     <use xlink:href="#DejaVuSans-30" x="214.746094"/>
     <use xlink:href="#DejaVuSans-20" x="278.369141"/>
     <use xlink:href="#DejaVuSans-43" x="310.15625"/>
     <use xlink:href="#DejaVuSans-38" x="379.980469"/>
    </g>
   </g>
   <g id="text_31">
    <!-- L0.20 C10 -->
    <g style="fill: #202020" transform="translate(613.098167 96.845656) scale(0.085 -0.085)">
     <use xlink:href="#DejaVuSans-4c"/>
     <use xlink:href="#DejaVuSans-30" x="55.712891"/>
     <use xlink:href="#DejaVuSans-2e" x="119.335938"/>
     <use xlink:href="#DejaVuSans-32" x="151.123047"/>
     <use xlink:href="#DejaVuSans-30" x="214.746094"/>
     <use xlink:href="#DejaVuSans-20" x="278.369141"/>
     <use xlink:href="#DejaVuSans-43" x="310.15625"/>
     <use xlink:href="#DejaVuSans-31" x="379.980469"/>
     <use xlink:href="#DejaVuSans-30" x="443.603516"/>
    </g>
   </g>
   <g id="patch_5">
    <path d="M 489.963244 60.908841 
Q 455.48299 71.229548 422.073819 81.229655 
" style="fill: none; stroke: #c83232; stroke-linecap: round"/>
    <path d="M 426.259066 81.960207 
L 422.073819 81.229655 
L 425.169408 78.319788 
" style="fill: none; stroke: #c83232; stroke-linecap: round"/>
   </g>
   <g id="text_32">
    <!-- Akurasi tertinggi -->
    <g style="fill: #c83232" transform="translate(474.606407 56.360767) scale(0.095 -0.095)">
     <use xlink:href="#DejaVuSans-41"/>
     <use xlink:href="#DejaVuSans-6b" x="68.408203"/>
     <use xlink:href="#DejaVuSans-75" x="123.193359"/>
     <use xlink:href="#DejaVuSans-72" x="186.572266"/>
     <use xlink:href="#DejaVuSans-61" x="227.685547"/>
     <use xlink:href="#DejaVuSans-73" x="288.964844"/>
     <use xlink:href="#DejaVuSans-69" x="341.064453"/>
     <use xlink:href="#DejaVuSans-20" x="368.847656"/>
     <use xlink:href="#DejaVuSans-74" x="400.634766"/>
     <use xlink:href="#DejaVuSans-65" x="439.84375"/>
     <use xlink:href="#DejaVuSans-72" x="501.367188"/>
     <use xlink:href="#DejaVuSans-74" x="542.480469"/>
     <use xlink:href="#DejaVuSans-69" x="581.689453"/>
     <use xlink:href="#DejaVuSans-6e" x="609.472656"/>
     <use xlink:href="#DejaVuSans-67" x="672.851562"/>
     <use xlink:href="#DejaVuSans-67" x="736.328125"/>
     <use xlink:href="#DejaVuSans-69" x="799.804688"/>
    </g>
   </g>
   <g id="text_33">
    <!-- Trade-off Accuracy vs Model Size Kandidat NAS -->
    <g transform="translate(174.817768 18.597656) scale(0.15 -0.15)">
     <defs>
      <path id="DejaVuSans-Bold-54" d="M 31 4666 
L 4331 4666 
L 4331 3756 
L 2784 3756 
L 2784 0 
L 1581 0 
L 1581 3756 
L 31 3756 
L 31 4666 
z
" transform="scale(0.015625)"/>
      <path id="DejaVuSans-Bold-72" d="M 3138 2547 
Q 2991 2616 2845 2648 
Q 2700 2681 2553 2681 
Q 2122 2681 1889 2404 
Q 1656 2128 1656 1613 
L 1656 0 
L 538 0 
L 538 3500 
L 1656 3500 
L 1656 2925 
Q 1872 3269 2151 3426 
Q 2431 3584 2822 3584 
Q 2878 3584 2943 3579 
Q 3009 3575 3134 3559 
L 3138 2547 
z
" transform="scale(0.015625)"/>
      <path id="DejaVuSans-Bold-61" d="M 2106 1575 
Q 1756 1575 1579 1456 
Q 1403 1338 1403 1106 
Q 1403 894 1545 773 
Q 1688 653 1941 653 
Q 2256 653 2472 879 
Q 2688 1106 2688 1447 
L 2688 1575 
L 2106 1575 
z
M 3816 1997 
L 3816 0 
L 2688 0 
L 2688 519 
Q 2463 200 2181 54 
Q 1900 -91 1497 -91 
Q 953 -91 614 226 
Q 275 544 275 1050 
Q 275 1666 698 1953 
Q 1122 2241 2028 2241 
L 2688 2241 
L 2688 2328 
Q 2688 2594 2478 2717 
Q 2269 2841 1825 2841 
Q 1466 2841 1156 2769 
Q 847 2697 581 2553 
L 581 3406 
Q 941 3494 1303 3539 
Q 1666 3584 2028 3584 
Q 2975 3584 3395 3211 
Q 3816 2838 3816 1997 
z
" transform="scale(0.015625)"/>
      <path id="DejaVuSans-Bold-64" d="M 2919 2988 
L 2919 4863 
L 4044 4863 
L 4044 0 
L 2919 0 
L 2919 506 
Q 2688 197 2409 53 
Q 2131 -91 1766 -91 
Q 1119 -91 703 423 
Q 288 938 288 1747 
Q 288 2556 703 3070 
Q 1119 3584 1766 3584 
Q 2128 3584 2408 3439 
Q 2688 3294 2919 2988 
z
M 2181 722 
Q 2541 722 2730 984 
Q 2919 1247 2919 1747 
Q 2919 2247 2730 2509 
Q 2541 2772 2181 2772 
Q 1825 2772 1636 2509 
Q 1447 2247 1447 1747 
Q 1447 1247 1636 984 
Q 1825 722 2181 722 
z
" transform="scale(0.015625)"/>
      <path id="DejaVuSans-Bold-65" d="M 4031 1759 
L 4031 1441 
L 1416 1441 
Q 1456 1047 1700 850 
Q 1944 653 2381 653 
Q 2734 653 3104 758 
Q 3475 863 3866 1075 
L 3866 213 
Q 3469 63 3072 -14 
Q 2675 -91 2278 -91 
Q 1328 -91 801 392 
Q 275 875 275 1747 
Q 275 2603 792 3093 
Q 1309 3584 2216 3584 
Q 3041 3584 3536 3087 
Q 4031 2591 4031 1759 
z
M 2881 2131 
Q 2881 2450 2695 2645 
Q 2509 2841 2209 2841 
Q 1884 2841 1681 2658 
Q 1478 2475 1428 2131 
L 2881 2131 
z
" transform="scale(0.015625)"/>
      <path id="DejaVuSans-Bold-2d" d="M 347 2297 
L 2309 2297 
L 2309 1388 
L 347 1388 
L 347 2297 
z
" transform="scale(0.015625)"/>
      <path id="DejaVuSans-Bold-6f" d="M 2203 2784 
Q 1831 2784 1636 2517 
Q 1441 2250 1441 1747 
Q 1441 1244 1636 976 
Q 1831 709 2203 709 
Q 2569 709 2762 976 
Q 2956 1244 2956 1747 
Q 2956 2250 2762 2517 
Q 2569 2784 2203 2784 
z
M 2203 3584 
Q 3106 3584 3614 3096 
Q 4122 2609 4122 1747 
Q 4122 884 3614 396 
Q 3106 -91 2203 -91 
Q 1297 -91 786 396 
Q 275 884 275 1747 
Q 275 2609 786 3096 
Q 1297 3584 2203 3584 
z
" transform="scale(0.015625)"/>
      <path id="DejaVuSans-Bold-66" d="M 2841 4863 
L 2841 4128 
L 2222 4128 
Q 1984 4128 1890 4042 
Q 1797 3956 1797 3744 
L 1797 3500 
L 2753 3500 
L 2753 2700 
L 1797 2700 
L 1797 0 
L 678 0 
L 678 2700 
L 122 2700 
L 122 3500 
L 678 3500 
L 678 3744 
Q 678 4316 997 4589 
Q 1316 4863 1984 4863 
L 2841 4863 
z
" transform="scale(0.015625)"/>
      <path id="DejaVuSans-Bold-20" transform="scale(0.015625)"/>
      <path id="DejaVuSans-Bold-41" d="M 3419 850 
L 1538 850 
L 1241 0 
L 31 0 
L 1759 4666 
L 3194 4666 
L 4922 0 
L 3713 0 
L 3419 850 
z
M 1838 1716 
L 3116 1716 
L 2478 3572 
L 1838 1716 
z
" transform="scale(0.015625)"/>
      <path id="DejaVuSans-Bold-63" d="M 3366 3391 
L 3366 2478 
Q 3138 2634 2908 2709 
Q 2678 2784 2431 2784 
Q 1963 2784 1702 2511 
Q 1441 2238 1441 1747 
Q 1441 1256 1702 982 
Q 1963 709 2431 709 
Q 2694 709 2930 787 
Q 3166 866 3366 1019 
L 3366 103 
Q 3103 6 2833 -42 
Q 2563 -91 2291 -91 
Q 1344 -91 809 395 
Q 275 881 275 1747 
Q 275 2613 809 3098 
Q 1344 3584 2291 3584 
Q 2566 3584 2833 3536 
Q 3100 3488 3366 3391 
z
" transform="scale(0.015625)"/>
      <path id="DejaVuSans-Bold-75" d="M 500 1363 
L 500 3500 
L 1625 3500 
L 1625 3150 
Q 1625 2866 1622 2436 
Q 1619 2006 1619 1863 
Q 1619 1441 1641 1255 
Q 1663 1069 1716 984 
Q 1784 875 1895 815 
Q 2006 756 2150 756 
Q 2500 756 2700 1025 
Q 2900 1294 2900 1772 
L 2900 3500 
L 4019 3500 
L 4019 0 
L 2900 0 
L 2900 506 
Q 2647 200 2364 54 
Q 2081 -91 1741 -91 
Q 1134 -91 817 281 
Q 500 653 500 1363 
z
" transform="scale(0.015625)"/>
      <path id="DejaVuSans-Bold-79" d="M 78 3500 
L 1197 3500 
L 2138 1125 
L 2938 3500 
L 4056 3500 
L 2584 -331 
Q 2363 -916 2067 -1148 
Q 1772 -1381 1288 -1381 
L 641 -1381 
L 641 -647 
L 991 -647 
Q 1275 -647 1404 -556 
Q 1534 -466 1606 -231 
L 1638 -134 
L 78 3500 
z
" transform="scale(0.015625)"/>
      <path id="DejaVuSans-Bold-76" d="M 97 3500 
L 1216 3500 
L 2088 1081 
L 2956 3500 
L 4078 3500 
L 2700 0 
L 1472 0 
L 97 3500 
z
" transform="scale(0.015625)"/>
      <path id="DejaVuSans-Bold-73" d="M 3272 3391 
L 3272 2541 
Q 2913 2691 2578 2766 
Q 2244 2841 1947 2841 
Q 1628 2841 1473 2761 
Q 1319 2681 1319 2516 
Q 1319 2381 1436 2309 
Q 1553 2238 1856 2203 
L 2053 2175 
Q 2913 2066 3209 1816 
Q 3506 1566 3506 1031 
Q 3506 472 3093 190 
Q 2681 -91 1863 -91 
Q 1516 -91 1145 -36 
Q 775 19 384 128 
L 384 978 
Q 719 816 1070 734 
Q 1422 653 1784 653 
Q 2113 653 2278 743 
Q 2444 834 2444 1013 
Q 2444 1163 2330 1236 
Q 2216 1309 1875 1350 
L 1678 1375 
Q 931 1469 631 1722 
Q 331 1975 331 2491 
Q 331 3047 712 3315 
Q 1094 3584 1881 3584 
Q 2191 3584 2531 3537 
Q 2872 3491 3272 3391 
z
" transform="scale(0.015625)"/>
      <path id="DejaVuSans-Bold-4d" d="M 588 4666 
L 2119 4666 
L 3181 2169 
L 4250 4666 
L 5778 4666 
L 5778 0 
L 4641 0 
L 4641 3413 
L 3566 897 
L 2803 897 
L 1728 3413 
L 1728 0 
L 588 0 
L 588 4666 
z
" transform="scale(0.015625)"/>
      <path id="DejaVuSans-Bold-6c" d="M 538 4863 
L 1656 4863 
L 1656 0 
L 538 0 
L 538 4863 
z
" transform="scale(0.015625)"/>
      <path id="DejaVuSans-Bold-53" d="M 3834 4519 
L 3834 3531 
Q 3450 3703 3084 3790 
Q 2719 3878 2394 3878 
Q 1963 3878 1756 3759 
Q 1550 3641 1550 3391 
Q 1550 3203 1689 3098 
Q 1828 2994 2194 2919 
L 2706 2816 
Q 3484 2659 3812 2340 
Q 4141 2022 4141 1434 
Q 4141 663 3683 286 
Q 3225 -91 2284 -91 
Q 1841 -91 1394 -6 
Q 947 78 500 244 
L 500 1259 
Q 947 1022 1364 901 
Q 1781 781 2169 781 
Q 2563 781 2772 912 
Q 2981 1044 2981 1288 
Q 2981 1506 2839 1625 
Q 2697 1744 2272 1838 
L 1806 1941 
Q 1106 2091 782 2419 
Q 459 2747 459 3303 
Q 459 4000 909 4375 
Q 1359 4750 2203 4750 
Q 2588 4750 2994 4692 
Q 3400 4634 3834 4519 
z
" transform="scale(0.015625)"/>
      <path id="DejaVuSans-Bold-69" d="M 538 3500 
L 1656 3500 
L 1656 0 
L 538 0 
L 538 3500 
z
M 538 4863 
L 1656 4863 
L 1656 3950 
L 538 3950 
L 538 4863 
z
" transform="scale(0.015625)"/>
      <path id="DejaVuSans-Bold-7a" d="M 366 3500 
L 3419 3500 
L 3419 2719 
L 1575 800 
L 3419 800 
L 3419 0 
L 288 0 
L 288 781 
L 2131 2700 
L 366 2700 
L 366 3500 
z
" transform="scale(0.015625)"/>
      <path id="DejaVuSans-Bold-4b" d="M 588 4666 
L 1791 4666 
L 1791 2963 
L 3525 4666 
L 4922 4666 
L 2675 2456 
L 5153 0 
L 3647 0 
L 1791 1838 
L 1791 0 
L 588 0 
L 588 4666 
z
" transform="scale(0.015625)"/>
      <path id="DejaVuSans-Bold-6e" d="M 4056 2131 
L 4056 0 
L 2931 0 
L 2931 347 
L 2931 1631 
Q 2931 2084 2911 2256 
Q 2891 2428 2841 2509 
Q 2775 2619 2662 2680 
Q 2550 2741 2406 2741 
Q 2056 2741 1856 2470 
Q 1656 2200 1656 1722 
L 1656 0 
L 538 0 
L 538 3500 
L 1656 3500 
L 1656 2988 
Q 1909 3294 2193 3439 
Q 2478 3584 2822 3584 
Q 3428 3584 3742 3212 
Q 4056 2841 4056 2131 
z
" transform="scale(0.015625)"/>
      <path id="DejaVuSans-Bold-74" d="M 1759 4494 
L 1759 3500 
L 2913 3500 
L 2913 2700 
L 1759 2700 
L 1759 1216 
Q 1759 972 1856 886 
Q 1953 800 2241 800 
L 2816 800 
L 2816 0 
L 1856 0 
Q 1194 0 917 276 
Q 641 553 641 1216 
L 641 2700 
L 84 2700 
L 84 3500 
L 641 3500 
L 641 4494 
L 1759 4494 
z
" transform="scale(0.015625)"/>
      <path id="DejaVuSans-Bold-4e" d="M 588 4666 
L 1931 4666 
L 3628 1466 
L 3628 4666 
L 4769 4666 
L 4769 0 
L 3425 0 
L 1728 3200 
L 1728 0 
L 588 0 
L 588 4666 
z
" transform="scale(0.015625)"/>
     </defs>
     <use xlink:href="#DejaVuSans-Bold-54"/>
     <use xlink:href="#DejaVuSans-Bold-72" x="57.212891"/>
     <use xlink:href="#DejaVuSans-Bold-61" x="106.529297"/>
     <use xlink:href="#DejaVuSans-Bold-64" x="174.009766"/>
     <use xlink:href="#DejaVuSans-Bold-65" x="245.591797"/>
     <use xlink:href="#DejaVuSans-Bold-2d" x="313.414062"/>
     <use xlink:href="#DejaVuSans-Bold-6f" x="354.917969"/>
     <use xlink:href="#DejaVuSans-Bold-66" x="423.619141"/>
     <use xlink:href="#DejaVuSans-Bold-66" x="467.125"/>
     <use xlink:href="#DejaVuSans-Bold-20" x="510.630859"/>
     <use xlink:href="#DejaVuSans-Bold-41" x="545.445312"/>
     <use xlink:href="#DejaVuSans-Bold-63" x="622.837891"/>
     <use xlink:href="#DejaVuSans-Bold-63" x="682.115234"/>
     <use xlink:href="#DejaVuSans-Bold-75" x="741.392578"/>
     <use xlink:href="#DejaVuSans-Bold-72" x="812.583984"/>
     <use xlink:href="#DejaVuSans-Bold-61" x="861.900391"/>
     <use xlink:href="#DejaVuSans-Bold-63" x="929.380859"/>
     <use xlink:href="#DejaVuSans-Bold-79" x="988.658203"/>
     <use xlink:href="#DejaVuSans-Bold-20" x="1053.84375"/>
     <use xlink:href="#DejaVuSans-Bold-76" x="1088.658203"/>
     <use xlink:href="#DejaVuSans-Bold-73" x="1153.84375"/>
     <use xlink:href="#DejaVuSans-Bold-20" x="1213.365234"/>
     <use xlink:href="#DejaVuSans-Bold-4d" x="1248.179688"/>
     <use xlink:href="#DejaVuSans-Bold-6f" x="1347.691406"/>
     <use xlink:href="#DejaVuSans-Bold-64" x="1416.392578"/>
     <use xlink:href="#DejaVuSans-Bold-65" x="1487.974609"/>
     <use xlink:href="#DejaVuSans-Bold-6c" x="1555.796875"/>
     <use xlink:href="#DejaVuSans-Bold-20" x="1590.074219"/>
     <use xlink:href="#DejaVuSans-Bold-53" x="1624.888672"/>
     <use xlink:href="#DejaVuSans-Bold-69" x="1696.910156"/>
     <use xlink:href="#DejaVuSans-Bold-7a" x="1731.1875"/>
     <use xlink:href="#DejaVuSans-Bold-65" x="1789.390625"/>
     <use xlink:href="#DejaVuSans-Bold-20" x="1857.212891"/>
     <use xlink:href="#DejaVuSans-Bold-4b" x="1892.027344"/>
     <use xlink:href="#DejaVuSans-Bold-61" x="1969.517578"/>
     <use xlink:href="#DejaVuSans-Bold-6e" x="2036.998047"/>
     <use xlink:href="#DejaVuSans-Bold-64" x="2108.189453"/>
     <use xlink:href="#DejaVuSans-Bold-69" x="2179.771484"/>
     <use xlink:href="#DejaVuSans-Bold-64" x="2214.048828"/>
     <use xlink:href="#DejaVuSans-Bold-61" x="2285.630859"/>
     <use xlink:href="#DejaVuSans-Bold-74" x="2353.111328"/>
     <use xlink:href="#DejaVuSans-Bold-20" x="2400.914062"/>
     <use xlink:href="#DejaVuSans-Bold-4e" x="2435.728516"/>
     <use xlink:href="#DejaVuSans-Bold-41" x="2519.419922"/>
     <use xlink:href="#DejaVuSans-Bold-53" x="2596.8125"/>
    </g>
   </g>
   <g id="PathCollection_5">
    <path d="M 419.086326 74.061621 
L 417.276236 79.632504 
L 411.418663 79.632504 
L 416.157539 83.075499 
L 414.34745 88.646382 
L 419.086326 85.203387 
L 423.825202 88.646382 
L 422.015112 83.075499 
L 426.753989 79.632504 
L 420.896415 79.632504 
L 419.086326 74.061621 
z
" clip-path="url(#pda324280d1)" style="fill: none; stroke: #c83232; stroke-width: 1.6"/>
   </g>
   <g id="legend_1">
    <g id="patch_6">
     <path d="M 589.265223 357.337656 
L 692.545848 357.337656 
Q 694.345848 357.337656 694.345848 355.537656 
L 694.345848 290.386094 
Q 694.345848 288.586094 692.545848 288.586094 
L 589.265223 288.586094 
Q 587.465223 288.586094 587.465223 290.386094 
L 587.465223 355.537656 
Q 587.465223 357.337656 589.265223 357.337656 
z
" style="fill: #ffffff; opacity: 0.92; stroke: #cccccc; stroke-linejoin: miter"/>
    </g>
    <g id="PathCollection_6">
     <g>
      <use xlink:href="#m30fccaf574" x="600.065223" y="296.662187" style="fill: #7f7f7f; stroke: #ffffff; stroke-width: 0.9"/>
     </g>
    </g>
    <g id="text_34">
     <!-- lambda=0.00 -->
     <g transform="translate(616.265223 299.024687) scale(0.09 -0.09)">
      <defs>
       <path id="DejaVuSans-3d" d="M 678 2906 
L 4684 2906 
L 4684 2381 
L 678 2381 
L 678 2906 
z
M 678 1631 
L 4684 1631 
L 4684 1100 
L 678 1100 
L 678 1631 
z
" transform="scale(0.015625)"/>
      </defs>
      <use xlink:href="#DejaVuSans-6c"/>
      <use xlink:href="#DejaVuSans-61" x="27.783203"/>
      <use xlink:href="#DejaVuSans-6d" x="89.0625"/>
      <use xlink:href="#DejaVuSans-62" x="186.474609"/>
      <use xlink:href="#DejaVuSans-64" x="249.951172"/>
      <use xlink:href="#DejaVuSans-61" x="313.427734"/>
      <use xlink:href="#DejaVuSans-3d" x="374.707031"/>
      <use xlink:href="#DejaVuSans-30" x="458.496094"/>
      <use xlink:href="#DejaVuSans-2e" x="522.119141"/>
      <use xlink:href="#DejaVuSans-30" x="553.90625"/>
      <use xlink:href="#DejaVuSans-30" x="617.529297"/>
     </g>
    </g>
    <g id="PathCollection_7">
     <g>
      <use xlink:href="#m582476f320" x="600.065223" y="309.8725" style="fill: #2f6fb0; stroke: #ffffff; stroke-width: 0.9"/>
     </g>
    </g>
    <g id="text_35">
     <!-- lambda=0.05 -->
     <g transform="translate(616.265223 312.235) scale(0.09 -0.09)">
      <use xlink:href="#DejaVuSans-6c"/>
      <use xlink:href="#DejaVuSans-61" x="27.783203"/>
      <use xlink:href="#DejaVuSans-6d" x="89.0625"/>
      <use xlink:href="#DejaVuSans-62" x="186.474609"/>
      <use xlink:href="#DejaVuSans-64" x="249.951172"/>
      <use xlink:href="#DejaVuSans-61" x="313.427734"/>
      <use xlink:href="#DejaVuSans-3d" x="374.707031"/>
      <use xlink:href="#DejaVuSans-30" x="458.496094"/>
      <use xlink:href="#DejaVuSans-2e" x="522.119141"/>
      <use xlink:href="#DejaVuSans-30" x="553.90625"/>
      <use xlink:href="#DejaVuSans-35" x="617.529297"/>
     </g>
    </g>
    <g id="PathCollection_8">
     <g>
      <use xlink:href="#m29706bb12a" x="600.065223" y="323.082812" style="fill: #d6862d; stroke: #ffffff; stroke-width: 0.9"/>
     </g>
    </g>
    <g id="text_36">
     <!-- lambda=0.10 -->
     <g transform="translate(616.265223 325.445312) scale(0.09 -0.09)">
      <use xlink:href="#DejaVuSans-6c"/>
      <use xlink:href="#DejaVuSans-61" x="27.783203"/>
      <use xlink:href="#DejaVuSans-6d" x="89.0625"/>
      <use xlink:href="#DejaVuSans-62" x="186.474609"/>
      <use xlink:href="#DejaVuSans-64" x="249.951172"/>
      <use xlink:href="#DejaVuSans-61" x="313.427734"/>
      <use xlink:href="#DejaVuSans-3d" x="374.707031"/>
      <use xlink:href="#DejaVuSans-30" x="458.496094"/>
      <use xlink:href="#DejaVuSans-2e" x="522.119141"/>
      <use xlink:href="#DejaVuSans-31" x="553.90625"/>
      <use xlink:href="#DejaVuSans-30" x="617.529297"/>
     </g>
    </g>
    <g id="PathCollection_9">
     <g>
      <use xlink:href="#m5ae487e869" x="600.065223" y="336.293125" style="fill: #3f9464; stroke: #ffffff; stroke-width: 0.9"/>
     </g>
    </g>
    <g id="text_37">
     <!-- lambda=0.20 -->
     <g transform="translate(616.265223 338.655625) scale(0.09 -0.09)">
      <use xlink:href="#DejaVuSans-6c"/>
      <use xlink:href="#DejaVuSans-61" x="27.783203"/>
      <use xlink:href="#DejaVuSans-6d" x="89.0625"/>
      <use xlink:href="#DejaVuSans-62" x="186.474609"/>
      <use xlink:href="#DejaVuSans-64" x="249.951172"/>
      <use xlink:href="#DejaVuSans-61" x="313.427734"/>
      <use xlink:href="#DejaVuSans-3d" x="374.707031"/>
      <use xlink:href="#DejaVuSans-30" x="458.496094"/>
      <use xlink:href="#DejaVuSans-2e" x="522.119141"/>
      <use xlink:href="#DejaVuSans-32" x="553.90625"/>
      <use xlink:href="#DejaVuSans-30" x="617.529297"/>
     </g>
    </g>
    <g id="PathCollection_10">
     <path d="M 600.065223 341.44118 
L 598.255134 347.012063 
L 592.39756 347.012063 
L 597.136437 350.455058 
L 595.326347 356.025941 
L 600.065223 352.582946 
L 604.804099 356.025941 
L 602.99401 350.455058 
L 607.732886 347.012063 
L 601.875313 347.012063 
L 600.065223 341.44118 
z
" style="fill: none; stroke: #c83232; stroke-width: 1.6"/>
    </g>
    <g id="text_38">
     <!-- Akurasi tertinggi -->
     <g transform="translate(616.265223 351.865937) scale(0.09 -0.09)">
      <use xlink:href="#DejaVuSans-41"/>
      <use xlink:href="#DejaVuSans-6b" x="68.408203"/>
      <use xlink:href="#DejaVuSans-75" x="123.193359"/>
      <use xlink:href="#DejaVuSans-72" x="186.572266"/>
      <use xlink:href="#DejaVuSans-61" x="227.685547"/>
      <use xlink:href="#DejaVuSans-73" x="288.964844"/>
      <use xlink:href="#DejaVuSans-69" x="341.064453"/>
      <use xlink:href="#DejaVuSans-20" x="368.847656"/>
      <use xlink:href="#DejaVuSans-74" x="400.634766"/>
      <use xlink:href="#DejaVuSans-65" x="439.84375"/>
      <use xlink:href="#DejaVuSans-72" x="501.367188"/>
      <use xlink:href="#DejaVuSans-74" x="542.480469"/>
      <use xlink:href="#DejaVuSans-69" x="581.689453"/>
      <use xlink:href="#DejaVuSans-6e" x="609.472656"/>
      <use xlink:href="#DejaVuSans-67" x="672.851562"/>
      <use xlink:href="#DejaVuSans-67" x="736.328125"/>
      <use xlink:href="#DejaVuSans-69" x="799.804688"/>
     </g>
    </g>
   </g>
  </g>
  <g id="text_39">
   <!-- Ukuran model mengikuti Tabel 4.7: ukuran aktual checkpoint best_model.pth, bukan ukuran ONNX deployment. -->
   <g style="fill: #666666" transform="translate(71.411563 409.157656) scale(0.083 -0.083)">
    <defs>
     <path id="DejaVuSans-55" d="M 556 4666 
L 1191 4666 
L 1191 1831 
Q 1191 1081 1462 751 
Q 1734 422 2344 422 
Q 2950 422 3222 751 
Q 3494 1081 3494 1831 
L 3494 4666 
L 4128 4666 
L 4128 1753 
Q 4128 841 3676 375 
Q 3225 -91 2344 -91 
Q 1459 -91 1007 375 
Q 556 841 556 1753 
L 556 4666 
z
" transform="scale(0.015625)"/>
     <path id="DejaVuSans-34" d="M 2419 4116 
L 825 1625 
L 2419 1625 
L 2419 4116 
z
M 2253 4666 
L 3047 4666 
L 3047 1625 
L 3713 1625 
L 3713 1100 
L 3047 1100 
L 3047 0 
L 2419 0 
L 2419 1100 
L 313 1100 
L 313 1709 
L 2253 4666 
z
" transform="scale(0.015625)"/>
     <path id="DejaVuSans-3a" d="M 750 794 
L 1409 794 
L 1409 0 
L 750 0 
L 750 794 
z
M 750 3309 
L 1409 3309 
L 1409 2516 
L 750 2516 
L 750 3309 
z
" transform="scale(0.015625)"/>
     <path id="DejaVuSans-2c" d="M 750 794 
L 1409 794 
L 1409 256 
L 897 -744 
L 494 -744 
L 750 256 
L 750 794 
z
" transform="scale(0.015625)"/>
     <path id="DejaVuSans-4f" d="M 2522 4238 
Q 1834 4238 1429 3725 
Q 1025 3213 1025 2328 
Q 1025 1447 1429 934 
Q 1834 422 2522 422 
Q 3209 422 3611 934 
Q 4013 1447 4013 2328 
Q 4013 3213 3611 3725 
Q 3209 4238 2522 4238 
z
M 2522 4750 
Q 3503 4750 4090 4092 
Q 4678 3434 4678 2328 
Q 4678 1225 4090 567 
Q 3503 -91 2522 -91 
Q 1538 -91 948 565 
Q 359 1222 359 2328 
Q 359 3434 948 4092 
Q 1538 4750 2522 4750 
z
" transform="scale(0.015625)"/>
     <path id="DejaVuSans-4e" d="M 628 4666 
L 1478 4666 
L 3547 763 
L 3547 4666 
L 4159 4666 
L 4159 0 
L 3309 0 
L 1241 3903 
L 1241 0 
L 628 0 
L 628 4666 
z
" transform="scale(0.015625)"/>
     <path id="DejaVuSans-58" d="M 403 4666 
L 1081 4666 
L 2241 2931 
L 3406 4666 
L 4084 4666 
L 2584 2425 
L 4184 0 
L 3506 0 
L 2194 1984 
L 872 0 
L 191 0 
L 1856 2491 
L 403 4666 
z
" transform="scale(0.015625)"/>
    </defs>
    <use xlink:href="#DejaVuSans-55"/>
    <use xlink:href="#DejaVuSans-6b" x="73.193359"/>
    <use xlink:href="#DejaVuSans-75" x="127.978516"/>
    <use xlink:href="#DejaVuSans-72" x="191.357422"/>
    <use xlink:href="#DejaVuSans-61" x="232.470703"/>
    <use xlink:href="#DejaVuSans-6e" x="293.75"/>
    <use xlink:href="#DejaVuSans-20" x="357.128906"/>
    <use xlink:href="#DejaVuSans-6d" x="388.916016"/>
    <use xlink:href="#DejaVuSans-6f" x="486.328125"/>
    <use xlink:href="#DejaVuSans-64" x="547.509766"/>
    <use xlink:href="#DejaVuSans-65" x="610.986328"/>
    <use xlink:href="#DejaVuSans-6c" x="672.509766"/>
    <use xlink:href="#DejaVuSans-20" x="700.292969"/>
    <use xlink:href="#DejaVuSans-6d" x="732.080078"/>
    <use xlink:href="#DejaVuSans-65" x="829.492188"/>
    <use xlink:href="#DejaVuSans-6e" x="891.015625"/>
    <use xlink:href="#DejaVuSans-67" x="954.394531"/>
    <use xlink:href="#DejaVuSans-69" x="1017.871094"/>
    <use xlink:href="#DejaVuSans-6b" x="1045.654297"/>
    <use xlink:href="#DejaVuSans-75" x="1100.439453"/>
    <use xlink:href="#DejaVuSans-74" x="1163.818359"/>
    <use xlink:href="#DejaVuSans-69" x="1203.027344"/>
    <use xlink:href="#DejaVuSans-20" x="1230.810547"/>
    <use xlink:href="#DejaVuSans-54" x="1262.597656"/>
    <use xlink:href="#DejaVuSans-61" x="1307.181641"/>
    <use xlink:href="#DejaVuSans-62" x="1368.460938"/>
    <use xlink:href="#DejaVuSans-65" x="1431.9375"/>
    <use xlink:href="#DejaVuSans-6c" x="1493.460938"/>
    <use xlink:href="#DejaVuSans-20" x="1521.244141"/>
    <use xlink:href="#DejaVuSans-34" x="1553.03125"/>
    <use xlink:href="#DejaVuSans-2e" x="1616.654297"/>
    <use xlink:href="#DejaVuSans-37" x="1648.441406"/>
    <use xlink:href="#DejaVuSans-3a" x="1712.064453"/>
    <use xlink:href="#DejaVuSans-20" x="1745.755859"/>
    <use xlink:href="#DejaVuSans-75" x="1777.542969"/>
    <use xlink:href="#DejaVuSans-6b" x="1840.921875"/>
    <use xlink:href="#DejaVuSans-75" x="1895.707031"/>
    <use xlink:href="#DejaVuSans-72" x="1959.085938"/>
    <use xlink:href="#DejaVuSans-61" x="2000.199219"/>
    <use xlink:href="#DejaVuSans-6e" x="2061.478516"/>
    <use xlink:href="#DejaVuSans-20" x="2124.857422"/>
    <use xlink:href="#DejaVuSans-61" x="2156.644531"/>
    <use xlink:href="#DejaVuSans-6b" x="2217.923828"/>
    <use xlink:href="#DejaVuSans-74" x="2275.833984"/>
    <use xlink:href="#DejaVuSans-75" x="2315.042969"/>
    <use xlink:href="#DejaVuSans-61" x="2378.421875"/>
    <use xlink:href="#DejaVuSans-6c" x="2439.701172"/>
    <use xlink:href="#DejaVuSans-20" x="2467.484375"/>
    <use xlink:href="#DejaVuSans-63" x="2499.271484"/>
    <use xlink:href="#DejaVuSans-68" x="2554.251953"/>
    <use xlink:href="#DejaVuSans-65" x="2617.630859"/>
    <use xlink:href="#DejaVuSans-63" x="2679.154297"/>
    <use xlink:href="#DejaVuSans-6b" x="2734.134766"/>
    <use xlink:href="#DejaVuSans-70" x="2792.044922"/>
    <use xlink:href="#DejaVuSans-6f" x="2855.521484"/>
    <use xlink:href="#DejaVuSans-69" x="2916.703125"/>
    <use xlink:href="#DejaVuSans-6e" x="2944.486328"/>
    <use xlink:href="#DejaVuSans-74" x="3007.865234"/>
    <use xlink:href="#DejaVuSans-20" x="3047.074219"/>
    <use xlink:href="#DejaVuSans-62" x="3078.861328"/>
    <use xlink:href="#DejaVuSans-65" x="3142.337891"/>
    <use xlink:href="#DejaVuSans-73" x="3203.861328"/>
    <use xlink:href="#DejaVuSans-74" x="3255.960938"/>
    <use xlink:href="#DejaVuSans-5f" x="3295.169922"/>
    <use xlink:href="#DejaVuSans-6d" x="3345.169922"/>
    <use xlink:href="#DejaVuSans-6f" x="3442.582031"/>
    <use xlink:href="#DejaVuSans-64" x="3503.763672"/>
    <use xlink:href="#DejaVuSans-65" x="3567.240234"/>
    <use xlink:href="#DejaVuSans-6c" x="3628.763672"/>
    <use xlink:href="#DejaVuSans-2e" x="3656.546875"/>
    <use xlink:href="#DejaVuSans-70" x="3688.333984"/>
    <use xlink:href="#DejaVuSans-74" x="3751.810547"/>
    <use xlink:href="#DejaVuSans-68" x="3791.019531"/>
    <use xlink:href="#DejaVuSans-2c" x="3854.398438"/>
    <use xlink:href="#DejaVuSans-20" x="3886.185547"/>
    <use xlink:href="#DejaVuSans-62" x="3917.972656"/>
    <use xlink:href="#DejaVuSans-75" x="3981.449219"/>
    <use xlink:href="#DejaVuSans-6b" x="4044.828125"/>
    <use xlink:href="#DejaVuSans-61" x="4100.988281"/>
    <use xlink:href="#DejaVuSans-6e" x="4162.267578"/>
    <use xlink:href="#DejaVuSans-20" x="4225.646484"/>
    <use xlink:href="#DejaVuSans-75" x="4257.433594"/>
    <use xlink:href="#DejaVuSans-6b" x="4320.8125"/>
    <use xlink:href="#DejaVuSans-75" x="4375.597656"/>
    <use xlink:href="#DejaVuSans-72" x="4438.976562"/>
    <use xlink:href="#DejaVuSans-61" x="4480.089844"/>
    <use xlink:href="#DejaVuSans-6e" x="4541.369141"/>
    <use xlink:href="#DejaVuSans-20" x="4604.748047"/>
    <use xlink:href="#DejaVuSans-4f" x="4636.535156"/>
    <use xlink:href="#DejaVuSans-4e" x="4715.246094"/>
    <use xlink:href="#DejaVuSans-4e" x="4790.050781"/>
    <use xlink:href="#DejaVuSans-58" x="4864.855469"/>
    <use xlink:href="#DejaVuSans-20" x="4933.361328"/>
    <use xlink:href="#DejaVuSans-64" x="4965.148438"/>
    <use xlink:href="#DejaVuSans-65" x="5028.625"/>
    <use xlink:href="#DejaVuSans-70" x="5090.148438"/>
    <use xlink:href="#DejaVuSans-6c" x="5153.625"/>
    <use xlink:href="#DejaVuSans-6f" x="5181.408203"/>
    <use xlink:href="#DejaVuSans-79" x="5242.589844"/>
    <use xlink:href="#DejaVuSans-6d" x="5301.769531"/>
    <use xlink:href="#DejaVuSans-65" x="5399.181641"/>
    <use xlink:href="#DejaVuSans-6e" x="5460.705078"/>
    <use xlink:href="#DejaVuSans-74" x="5524.083984"/>
    <use xlink:href="#DejaVuSans-2e" x="5563.292969"/>
   </g>
  </g>
 </g>
 <defs>
  <clipPath id="pda324280d1">
   <rect x="51.111563" y="30.597656" width="647.734286" height="331.24"/>
  </clipPath>
 </defs>
</svg>
